<svg xmlns="http://www.w3.org/2000/svg" width="900" height="620" viewBox="0 0 900 620"><rect width="900" height="620" fill="#ffffff"/><title>Helicopter overflight noise certification (ICAO Annex 16, Chapter 8)</title><defs><path id="DejaVuSans-4f" d="M9.42 75.98L18.41 75.98L18.41 0L9.42 0L9.42 75.98Z"/><path id="DejaVuSans-48" d="M56.2 29.59L56.2 25.2L14.89 25.2Q15.48 15.92 20.48 11.06Q25.48 6.2 34.42 6.2Q39.59 6.2 44.45 7.47Q49.31 8.73 54.11 11.28L54.11 2.78Q49.27 0.73 44.19 -0.34Q39.11 -1.42 33.89 -1.42Q20.8 -1.42 13.16 6.19Q5.52 13.81 5.52 26.81Q5.52 40.23 12.77 48.11Q20.02 56 32.33 56Q43.36 56 49.78 48.89Q56.2 41.8 56.2 29.59ZM47.22 32.23Q47.12 39.59 43.09 43.98Q39.06 48.39 32.42 48.39Q24.91 48.39 20.39 44.14Q15.88 39.89 15.19 32.17L47.22 32.23Z"/><path id="DejaVuSans-59" d="M2.98 54.69L12.5 54.69L29.59 8.8L46.69 54.69L56.2 54.69L35.69 0L23.48 0L2.98 54.69Z"/><path id="DejaVuSans-13b0" d="M28.61 75.98L53.61 75.98L53.61 0L44.58 0L44.58 68.5L28.52 68.5Q23.69 68.5 21.8 66.55Q19.92 64.59 19.92 59.52L19.92 54.69L34.72 54.69L34.72 47.7L19.92 47.7L19.92 0L10.89 0L10.89 47.7L2.3 47.7L2.3 54.69L10.89 54.69L10.89 58.5Q10.89 67.62 15.14 71.8Q19.39 75.98 28.61 75.98Z"/><path id="DejaVuSans-4c" d="M9.42 54.69L18.41 54.69L18.41 0L9.42 0L9.42 54.69ZM9.42 75.98L18.41 75.98L18.41 64.59L9.42 64.59L9.42 75.98Z"/><path id="DejaVuSans-4a" d="M45.41 27.98Q45.41 37.75 41.38 43.11Q37.36 48.48 30.08 48.48Q22.86 48.48 18.83 43.11Q14.8 37.75 14.8 27.98Q14.8 18.27 18.83 12.89Q22.86 7.52 30.08 7.52Q37.36 7.52 41.38 12.89Q45.41 18.27 45.41 27.98ZM54.39 6.78Q54.39 -7.17 48.19 -13.98Q42 -20.8 29.2 -20.8Q24.47 -20.8 20.27 -20.09Q16.06 -19.39 12.11 -17.92L12.11 -9.19Q16.06 -11.33 19.92 -12.34Q23.78 -13.38 27.78 -13.38Q36.62 -13.38 41.02 -8.77Q45.41 -4.16 45.41 5.17L45.41 9.62Q42.62 4.78 38.28 2.39Q33.94 0 27.88 0Q17.83 0 11.67 7.66Q5.52 15.33 5.52 27.98Q5.52 40.67 11.67 48.33Q17.83 56 27.88 56Q33.94 56 38.28 53.61Q42.62 51.22 45.41 46.39L45.41 54.69L54.39 54.69L54.39 6.78Z"/><path id="DejaVuSans-4b" d="M54.89 33.02L54.89 0L45.91 0L45.91 32.72Q45.91 40.48 42.88 44.33Q39.84 48.19 33.8 48.19Q26.52 48.19 22.31 43.55Q18.11 38.92 18.11 30.91L18.11 0L9.08 0L9.08 75.98L18.11 75.98L18.11 46.19Q21.34 51.12 25.7 53.56Q30.08 56 35.8 56Q45.22 56 50.05 50.17Q54.89 44.34 54.89 33.02Z"/><path id="DejaVuSans-57" d="M18.31 70.22L18.31 54.69L36.81 54.69L36.81 47.7L18.31 47.7L18.31 18.02Q18.31 11.33 20.14 9.42Q21.97 7.52 27.59 7.52L36.81 7.52L36.81 0L27.59 0Q17.19 0 13.23 3.88Q9.28 7.77 9.28 18.02L9.28 47.7L2.69 47.7L2.69 54.69L9.28 54.69L9.28 70.22L18.31 70.22Z"/><path id="DejaVuSans-44" d="M34.28 27.48Q23.39 27.48 19.19 25Q14.98 22.52 14.98 16.5Q14.98 11.72 18.14 8.91Q21.3 6.11 26.7 6.11Q34.19 6.11 38.7 11.41Q43.22 16.7 43.22 25.48L43.22 27.48L34.28 27.48ZM52.2 31.2L52.2 0L43.22 0L43.22 8.3Q40.14 3.33 35.55 0.95Q30.95 -1.42 24.31 -1.42Q15.92 -1.42 10.95 3.3Q6 8.02 6 15.92Q6 25.14 12.17 29.83Q18.36 34.52 30.61 34.52L43.22 34.52L43.22 35.41Q43.22 41.61 39.14 45Q35.06 48.39 27.69 48.39Q23 48.39 18.55 47.27Q14.11 46.14 10.02 43.89L10.02 52.2Q14.94 54.11 19.58 55.05Q24.22 56 28.61 56Q40.48 56 46.34 49.84Q52.2 43.7 52.2 31.2Z"/><path id="DejaVuSans-13" d="M31.78 66.41Q24.17 66.41 20.33 58.91Q16.5 51.42 16.5 36.38Q16.5 21.39 20.33 13.89Q24.17 6.39 31.78 6.39Q39.45 6.39 43.28 13.89Q47.12 21.39 47.12 36.38Q47.12 51.42 43.28 58.91Q39.45 66.41 31.78 66.41ZM31.78 74.22Q44.05 74.22 50.52 64.52Q56.98 54.83 56.98 36.38Q56.98 17.97 50.52 8.27Q44.05 -1.42 31.78 -1.42Q19.53 -1.42 13.06 8.27Q6.59 17.97 6.59 36.38Q6.59 54.83 13.06 64.52Q19.53 74.22 31.78 74.22Z"/><path id="DejaVuSans-11" d="M10.69 12.41L21 12.41L21 0L10.69 0L10.69 12.41Z"/><path id="DejaVuSans-1c" d="M10.98 1.52L10.98 10.5Q14.7 8.73 18.5 7.81Q22.31 6.89 25.98 6.89Q35.75 6.89 40.89 13.45Q46.05 20.02 46.78 33.41Q43.95 29.2 39.59 26.95Q35.25 24.7 29.98 24.7Q19.05 24.7 12.67 31.31Q6.3 37.94 6.3 49.42Q6.3 60.64 12.94 67.42Q19.58 74.22 30.61 74.22Q43.27 74.22 49.92 64.52Q56.59 54.83 56.59 36.38Q56.59 19.14 48.41 8.86Q40.23 -1.42 26.42 -1.42Q22.7 -1.42 18.89 -0.69Q15.09 0.05 10.98 1.52ZM30.61 32.42Q37.25 32.42 41.12 36.95Q45.02 41.5 45.02 49.42Q45.02 57.28 41.12 61.84Q37.25 66.41 30.61 66.41Q23.97 66.41 20.09 61.84Q16.22 57.28 16.22 49.42Q16.22 41.5 20.09 36.95Q23.97 32.42 30.61 32.42Z"/><path id="DejaVuSans-Oblique-39" d="M20.61 0L7.81 72.91L17.48 72.91L28.08 10.2L63.48 72.91L74.22 72.91L32.08 0L20.61 0Z"/><path id="DejaVuSans-Oblique-2b" d="M16.89 72.91L26.81 72.91L21 43.02L56.78 43.02L62.59 72.91L72.52 72.91L58.3 0L48.39 0L55.17 34.72L19.39 34.72L12.59 0L2.69 0L16.89 72.91Z"/><path id="DejaVuSans-14" d="M12.41 8.3L28.52 8.3L28.52 63.92L10.98 60.41L10.98 69.39L28.42 72.91L38.28 72.91L38.28 8.3L54.39 8.3L54.39 0L12.41 0L12.41 8.3Z"/><path id="DejaVuSans-18" d="M10.8 72.91L49.52 72.91L49.52 64.59L19.83 64.59L19.83 46.73Q21.97 47.47 24.11 47.83Q26.27 48.19 28.42 48.19Q40.62 48.19 47.75 41.5Q54.89 34.81 54.89 23.39Q54.89 11.62 47.56 5.09Q40.23 -1.42 26.91 -1.42Q22.31 -1.42 17.55 -0.64Q12.8 0.14 7.72 1.7L7.72 11.62Q12.11 9.23 16.8 8.06Q21.48 6.89 26.7 6.89Q35.16 6.89 40.08 11.33Q45.02 15.77 45.02 23.39Q45.02 31 40.08 35.44Q35.16 39.89 26.7 39.89Q22.75 39.89 18.81 39.02Q14.89 38.14 10.8 36.28L10.8 72.91Z"/><path id="DejaVuSans-50" d="M52 44.19Q55.38 50.25 60.06 53.12Q64.75 56 71.09 56Q79.64 56 84.28 50.02Q88.92 44.05 88.92 33.02L88.92 0L79.89 0L79.89 32.72Q79.89 40.58 77.09 44.38Q74.31 48.19 68.61 48.19Q61.62 48.19 57.56 43.55Q53.52 38.92 53.52 30.91L53.52 0L44.48 0L44.48 32.72Q44.48 40.62 41.7 44.41Q38.92 48.19 33.11 48.19Q26.22 48.19 22.16 43.53Q18.11 38.88 18.11 30.91L18.11 0L9.08 0L9.08 54.69L18.11 54.69L18.11 46.19Q21.19 51.22 25.48 53.61Q29.78 56 35.69 56Q41.66 56 45.83 52.97Q50 49.95 52 44.19Z"/><path id="DejaVuSans-b" d="M31 75.88Q24.47 64.66 21.28 53.66Q18.11 42.67 18.11 31.39Q18.11 20.12 21.31 9.06Q24.52 -2 31 -13.19L23.19 -13.19Q15.88 -1.7 12.23 9.38Q8.59 20.45 8.59 31.39Q8.59 42.28 12.2 53.31Q15.83 64.36 23.19 75.88L31 75.88Z"/><path id="DejaVuSans-17" d="M37.8 64.31L12.89 25.39L37.8 25.39L37.8 64.31ZM35.2 72.91L47.61 72.91L47.61 25.39L58.02 25.39L58.02 17.19L47.61 17.19L47.61 0L37.8 0L37.8 17.19L4.89 17.19L4.89 26.7L35.2 72.91Z"/><path id="DejaVuSans-15" d="M19.19 8.3L53.61 8.3L53.61 0L7.33 0L7.33 8.3Q12.94 14.11 22.62 23.89Q32.33 33.69 34.81 36.53Q39.55 41.84 41.42 45.53Q43.31 49.22 43.31 52.78Q43.31 58.59 39.23 62.25Q35.16 65.92 28.61 65.92Q23.97 65.92 18.81 64.31Q13.67 62.7 7.81 59.42L7.81 69.39Q13.77 71.78 18.94 73Q24.12 74.22 28.42 74.22Q39.75 74.22 46.48 68.55Q53.22 62.89 53.22 53.42Q53.22 48.92 51.53 44.89Q49.86 40.88 45.41 35.41Q44.19 33.98 37.64 27.22Q31.11 20.45 19.19 8.3Z"/><path id="DejaVuSans-49" d="M37.11 75.98L37.11 68.5L28.52 68.5Q23.69 68.5 21.8 66.55Q19.92 64.59 19.92 59.52L19.92 54.69L34.72 54.69L34.72 47.7L19.92 47.7L19.92 0L10.89 0L10.89 47.7L2.3 47.7L2.3 54.69L10.89 54.69L10.89 58.5Q10.89 67.62 15.14 71.8Q19.39 75.98 28.61 75.98L37.11 75.98Z"/><path id="DejaVuSans-c" d="M8.02 75.88L15.83 75.88Q23.14 64.36 26.78 53.31Q30.42 42.28 30.42 31.39Q30.42 20.45 26.78 9.38Q23.14 -1.7 15.83 -13.19L8.02 -13.19Q14.5 -2 17.7 9.06Q20.91 20.12 20.91 31.39Q20.91 42.67 17.7 53.66Q14.5 64.66 8.02 75.88Z"/><path id="DejaVuSans-46" d="M48.78 52.59L48.78 44.19Q44.97 46.3 41.14 47.34Q37.31 48.39 33.41 48.39Q24.66 48.39 19.81 42.84Q14.98 37.31 14.98 27.3Q14.98 17.28 19.81 11.73Q24.66 6.2 33.41 6.2Q37.31 6.2 41.14 7.25Q44.97 8.3 48.78 10.41L48.78 2.09Q45.02 0.34 40.98 -0.53Q36.97 -1.42 32.42 -1.42Q20.06 -1.42 12.78 6.34Q5.52 14.11 5.52 27.3Q5.52 40.67 12.86 48.33Q20.22 56 33.02 56Q37.16 56 41.11 55.14Q45.06 54.3 48.78 52.59Z"/><path id="DejaVuSans-51" d="M54.89 33.02L54.89 0L45.91 0L45.91 32.72Q45.91 40.48 42.88 44.33Q39.84 48.19 33.8 48.19Q26.52 48.19 22.31 43.55Q18.11 38.92 18.11 30.91L18.11 0L9.08 0L9.08 54.69L18.11 54.69L18.11 46.19Q21.34 51.12 25.7 53.56Q30.08 56 35.8 56Q45.22 56 50.05 50.17Q54.89 44.34 54.89 33.02Z"/><path id="DejaVuSans-55" d="M41.11 46.3Q39.59 47.17 37.81 47.58Q36.03 48 33.89 48Q26.27 48 22.19 43.05Q18.11 38.09 18.11 28.81L18.11 0L9.08 0L9.08 54.69L18.11 54.69L18.11 46.19Q20.95 51.17 25.48 53.58Q30.03 56 36.53 56Q37.45 56 38.58 55.88Q39.7 55.77 41.06 55.52L41.11 46.3Z"/><path id="DejaVuSans-52" d="M30.61 48.39Q23.39 48.39 19.19 42.75Q14.98 37.11 14.98 27.3Q14.98 17.48 19.16 11.84Q23.34 6.2 30.61 6.2Q37.8 6.2 41.98 11.86Q46.19 17.53 46.19 27.3Q46.19 37.02 41.98 42.7Q37.8 48.39 30.61 48.39ZM30.61 56Q42.33 56 49.02 48.38Q55.72 40.77 55.72 27.3Q55.72 13.88 49.02 6.22Q42.33 -1.42 30.61 -1.42Q18.84 -1.42 12.17 6.22Q5.52 13.88 5.52 27.3Q5.52 40.77 12.17 48.38Q18.84 56 30.61 56Z"/><path id="DejaVuSans-53" d="M18.11 8.2L18.11 -20.8L9.08 -20.8L9.08 54.69L18.11 54.69L18.11 46.39Q20.95 51.27 25.27 53.62Q29.59 56 35.59 56Q45.56 56 51.78 48.09Q58.02 40.19 58.02 27.3Q58.02 14.41 51.78 6.48Q45.56 -1.42 35.59 -1.42Q29.59 -1.42 25.27 0.95Q20.95 3.33 18.11 8.2ZM48.69 27.3Q48.69 37.2 44.61 42.84Q40.53 48.48 33.41 48.48Q26.27 48.48 22.19 42.84Q18.11 37.2 18.11 27.3Q18.11 17.39 22.19 11.75Q26.27 6.11 33.41 6.11Q40.53 6.11 44.61 11.75Q48.69 17.39 48.69 27.3Z"/><path id="DejaVuSans-Bold-33" d="M9.19 72.91L40.38 72.91Q54.3 72.91 61.73 66.72Q69.19 60.55 69.19 49.12Q69.19 37.64 61.73 31.47Q54.3 25.3 40.38 25.3L27.98 25.3L27.98 0L9.19 0L9.19 72.91ZM27.98 59.28L27.98 38.92L38.38 38.92Q43.84 38.92 46.83 41.58Q49.81 44.23 49.81 49.12Q49.81 54 46.83 56.64Q43.84 59.28 38.38 59.28L27.98 59.28Z"/><path id="DejaVuSans-Bold-4f" d="M8.41 75.98L25.88 75.98L25.88 0L8.41 0L8.41 75.98Z"/><path id="DejaVuSans-Bold-44" d="M32.91 24.61Q27.44 24.61 24.67 22.75Q21.92 20.91 21.92 17.28Q21.92 13.97 24.14 12.08Q26.38 10.2 30.33 10.2Q35.25 10.2 38.62 13.73Q42 17.28 42 22.61L42 24.61L32.91 24.61ZM59.62 31.2L59.62 0L42 0L42 8.11Q38.48 3.12 34.08 0.84Q29.69 -1.42 23.39 -1.42Q14.89 -1.42 9.59 3.53Q4.3 8.5 4.3 16.41Q4.3 26.03 10.91 30.52Q17.53 35.02 31.69 35.02L42 35.02L42 36.38Q42 40.53 38.72 42.45Q35.45 44.39 28.52 44.39Q22.91 44.39 18.06 43.27Q13.23 42.14 9.08 39.89L9.08 53.22Q14.7 54.59 20.36 55.3Q26.03 56 31.69 56Q46.48 56 53.05 50.17Q59.62 44.34 59.62 31.2Z"/><path id="DejaVuSans-Bold-51" d="M63.38 33.3L63.38 0L45.8 0L45.8 5.42L45.8 25.48Q45.8 32.56 45.48 35.25Q45.17 37.94 44.39 39.2Q43.36 40.92 41.59 41.88Q39.84 42.83 37.59 42.83Q32.12 42.83 29 38.59Q25.88 34.38 25.88 26.91L25.88 0L8.41 0L8.41 54.69L25.88 54.69L25.88 46.69Q29.83 51.47 34.27 53.73Q38.72 56 44.09 56Q53.56 56 58.47 50.19Q63.38 44.39 63.38 33.3Z"/><path id="DejaVuSans-Bold-59" d="M1.52 54.69L19 54.69L32.62 16.89L46.19 54.69L63.72 54.69L42.19 0L23 0L1.52 54.69Z"/><path id="DejaVuSans-Bold-4c" d="M8.41 54.69L25.88 54.69L25.88 0L8.41 0L8.41 54.69ZM8.41 75.98L25.88 75.98L25.88 61.72L8.41 61.72L8.41 75.98Z"/><path id="DejaVuSans-Bold-48" d="M62.98 27.48L62.98 22.52L22.12 22.52Q22.75 16.36 26.56 13.28Q30.38 10.2 37.2 10.2Q42.72 10.2 48.5 11.84Q54.3 13.48 60.41 16.8L60.41 3.33Q54.2 0.98 48 -0.22Q41.8 -1.42 35.59 -1.42Q20.75 -1.42 12.52 6.12Q4.3 13.67 4.3 27.3Q4.3 40.67 12.38 48.33Q20.45 56 34.62 56Q47.52 56 55.25 48.23Q62.98 40.48 62.98 27.48ZM45.02 33.3Q45.02 38.28 42.11 41.33Q39.2 44.39 34.52 44.39Q29.44 44.39 26.27 41.53Q23.09 38.67 22.31 33.3L45.02 33.3Z"/><path id="DejaVuSans-Bold-5a" d="M3.52 54.69L20.52 54.69L29.69 17L38.92 54.69L53.52 54.69L62.7 17.39L71.92 54.69L88.92 54.69L74.52 0L55.42 0L46.19 37.59L37.02 0L17.92 0L3.52 54.69Z"/><path id="DejaVuSans-4e" d="M9.08 75.98L18.11 75.98L18.11 31.11L44.92 54.69L56.39 54.69L27.39 29.11L57.62 0L45.91 0L18.11 26.7L18.11 0L9.08 0L9.08 75.98Z"/><path id="DejaVuSans-16" d="M40.58 39.31Q47.66 37.8 51.62 33Q55.61 28.22 55.61 21.19Q55.61 10.41 48.19 4.48Q40.77 -1.42 27.09 -1.42Q22.52 -1.42 17.66 -0.52Q12.8 0.39 7.62 2.2L7.62 11.72Q11.72 9.33 16.59 8.11Q21.48 6.89 26.81 6.89Q36.08 6.89 40.94 10.55Q45.8 14.2 45.8 21.19Q45.8 27.64 41.28 31.27Q36.77 34.91 28.72 34.91L20.22 34.91L20.22 43.02L29.11 43.02Q36.38 43.02 40.23 45.92Q44.09 48.83 44.09 54.3Q44.09 59.91 40.11 62.91Q36.14 65.92 28.72 65.92Q24.66 65.92 20.02 65.03Q15.38 64.16 9.81 62.31L9.81 71.09Q15.44 72.66 20.34 73.44Q25.25 74.22 29.59 74.22Q40.83 74.22 47.36 69.11Q53.91 64.02 53.91 55.33Q53.91 49.27 50.44 45.09Q46.97 40.92 40.58 39.31Z"/><path id="DejaVuSans-56" d="M44.28 53.08L44.28 44.58Q40.48 46.53 36.38 47.5Q32.28 48.48 27.88 48.48Q21.19 48.48 17.84 46.44Q14.5 44.39 14.5 40.28Q14.5 37.16 16.89 35.38Q19.28 33.59 26.52 31.98L29.59 31.3Q39.16 29.25 43.19 25.52Q47.22 21.78 47.22 15.09Q47.22 7.47 41.19 3.02Q35.16 -1.42 24.61 -1.42Q20.22 -1.42 15.45 -0.56Q10.69 0.3 5.42 2L5.42 11.28Q10.41 8.69 15.23 7.39Q20.06 6.11 24.81 6.11Q31.16 6.11 34.56 8.28Q37.98 10.45 37.98 14.41Q37.98 18.06 35.52 20.02Q33.06 21.97 24.7 23.78L21.58 24.52Q13.23 26.27 9.52 29.91Q5.81 33.55 5.81 39.89Q5.81 47.61 11.28 51.8Q16.75 56 26.81 56Q31.78 56 36.17 55.27Q40.58 54.55 44.28 53.08Z"/><path id="DejaVuSans-36" d="M53.52 70.52L53.52 60.89Q47.91 63.58 42.92 64.89Q37.94 66.22 33.3 66.22Q25.25 66.22 20.88 63.09Q16.5 59.97 16.5 54.2Q16.5 49.36 19.41 46.89Q22.31 44.44 30.42 42.92L36.38 41.7Q47.41 39.59 52.66 34.3Q57.91 29 57.91 20.12Q57.91 9.52 50.8 4.05Q43.7 -1.42 29.98 -1.42Q24.81 -1.42 18.97 -0.25Q13.14 0.92 6.89 3.22L6.89 13.38Q12.89 10.02 18.66 8.3Q24.42 6.59 29.98 6.59Q38.42 6.59 43.02 9.91Q47.61 13.23 47.61 19.39Q47.61 24.75 44.31 27.78Q41.02 30.81 33.5 32.33L27.48 33.5Q16.45 35.69 11.52 40.38Q6.59 45.06 6.59 53.42Q6.59 63.09 13.41 68.66Q20.22 74.22 32.17 74.22Q37.31 74.22 42.62 73.28Q47.95 72.36 53.52 70.52Z"/><path id="DejaVuSans-47" d="M45.41 46.39L45.41 75.98L54.39 75.98L54.39 0L45.41 0L45.41 8.2Q42.58 3.33 38.25 0.95Q33.94 -1.42 27.88 -1.42Q17.97 -1.42 11.73 6.48Q5.52 14.41 5.52 27.3Q5.52 40.19 11.73 48.09Q17.97 56 27.88 56Q33.94 56 38.25 53.62Q42.58 51.27 45.41 46.39ZM14.8 27.3Q14.8 17.39 18.88 11.75Q22.95 6.11 30.08 6.11Q37.2 6.11 41.3 11.75Q45.41 17.39 45.41 27.3Q45.41 37.2 41.3 42.84Q37.2 48.48 30.08 48.48Q22.95 48.48 18.88 42.84Q14.8 37.2 14.8 27.3Z"/><path id="DejaVuSans-1d" d="M11.72 12.41L22.02 12.41L22.02 0L11.72 0L11.72 12.41ZM11.72 51.7L22.02 51.7L22.02 39.31L11.72 39.31L11.72 51.7Z"/><path id="DejaVuSans-f" d="M11.72 12.41L22.02 12.41L22.02 4L14.02 -11.62L7.72 -11.62L11.72 4L11.72 12.41Z"/><path id="DejaVuSans-Oblique-31" d="M16.89 72.91L30.17 72.91L50.3 10.41L62.5 72.91L72.12 72.91L57.91 0L44.58 0L24.52 62.89L12.31 0L2.69 0L16.89 72.91Z"/><path id="DejaVuSans-Oblique-28" d="M16.89 72.91L62.98 72.91L61.38 64.59L25.09 64.59L20.91 43.02L55.72 43.02L54.11 34.72L19.28 34.72L14.2 8.3L51.31 8.3L49.7 0L2.69 0L16.89 72.91Z"/><path id="DejaVuSans-e" d="M46 62.7L46 35.5L73.19 35.5L73.19 27.2L46 27.2L46 0L37.8 0L37.8 27.2L10.59 27.2L10.59 35.5L37.8 35.5L37.8 62.7L46 62.7Z"/><path id="DejaVuSans-12" d="M25.39 72.91L33.69 72.91L8.3 -9.28L0 -9.28L25.39 72.91Z"/><path id="DejaVuSans-28" d="M9.81 72.91L55.91 72.91L55.91 64.59L19.67 64.59L19.67 43.02L54.39 43.02L54.39 34.72L19.67 34.72L19.67 8.3L56.78 8.3L56.78 0L9.81 0L9.81 72.91Z"/><path id="DejaVuSans-33" d="M19.67 64.8L19.67 37.41L32.08 37.41Q38.97 37.41 42.72 40.97Q46.48 44.53 46.48 51.12Q46.48 57.67 42.72 61.23Q38.97 64.8 32.08 64.8L19.67 64.8ZM9.81 72.91L32.08 72.91Q44.34 72.91 50.61 67.36Q56.89 61.81 56.89 51.12Q56.89 40.33 50.61 34.81Q44.34 29.3 32.08 29.3L19.67 29.3L19.67 0L9.81 0L9.81 72.91Z"/><path id="DejaVuSans-31" d="M9.81 72.91L23.09 72.91L55.42 11.92L55.42 72.91L64.98 72.91L64.98 0L51.7 0L19.39 60.98L19.39 0L9.81 0L9.81 72.91Z"/><path id="DejaVuSans-2f" d="M9.81 72.91L19.67 72.91L19.67 8.3L55.17 8.3L55.17 0L9.81 0L9.81 72.91Z"/><path id="DejaVuSans-25" d="M19.67 34.81L19.67 8.11L35.5 8.11Q43.45 8.11 47.28 11.41Q51.12 14.7 51.12 21.48Q51.12 28.33 47.28 31.56Q43.45 34.81 35.5 34.81L19.67 34.81ZM19.67 64.8L19.67 42.83L34.28 42.83Q41.5 42.83 45.03 45.53Q48.58 48.25 48.58 53.81Q48.58 59.33 45.03 62.06Q41.5 64.8 34.28 64.8L19.67 64.8ZM9.81 72.91L35.02 72.91Q46.3 72.91 52.39 68.22Q58.5 63.53 58.5 54.89Q58.5 48.19 55.38 44.23Q52.25 40.28 46.19 39.31Q53.47 37.75 57.5 32.78Q61.53 27.83 61.53 20.41Q61.53 10.64 54.89 5.31Q48.25 0 35.98 0L9.81 0L9.81 72.91Z"/><path id="DejaVuSans-1e" d="M11.72 51.7L22.02 51.7L22.02 39.31L11.72 39.31L11.72 51.7ZM11.72 12.41L22.02 12.41L22.02 4L14.02 -11.62L7.72 -11.62L11.72 4L11.72 12.41Z"/><path id="DejaVuSans-5b" d="M54.89 54.69L35.11 28.08L55.91 0L45.31 0L29.39 21.48L13.48 0L2.88 0L24.12 28.61L4.69 54.69L15.28 54.69L29.78 35.2L44.28 54.69L54.89 54.69Z"/><path id="DejaVuSans-5a" d="M4.2 54.69L13.19 54.69L24.42 12.02L35.59 54.69L46.19 54.69L57.42 12.02L68.61 54.69L77.59 54.69L63.28 0L52.69 0L40.92 44.83L29.11 0L18.5 0L4.2 54.69Z"/><path id="DejaVuSans-54" d="M14.8 27.3Q14.8 17.39 18.88 11.75Q22.95 6.11 30.08 6.11Q37.2 6.11 41.3 11.75Q45.41 17.39 45.41 27.3Q45.41 37.2 41.3 42.84Q37.2 48.48 30.08 48.48Q22.95 48.48 18.88 42.84Q14.8 37.2 14.8 27.3ZM45.41 8.2Q42.58 3.33 38.25 0.95Q33.94 -1.42 27.88 -1.42Q17.97 -1.42 11.73 6.48Q5.52 14.41 5.52 27.3Q5.52 40.19 11.73 48.09Q17.97 56 27.88 56Q33.94 56 38.25 53.62Q42.58 51.27 45.41 46.39L45.41 54.69L54.39 54.69L54.39 -20.8L45.41 -20.8L45.41 8.2Z"/><path id="DejaVuSans-58" d="M8.5 21.58L8.5 54.69L17.48 54.69L17.48 21.92Q17.48 14.16 20.5 10.27Q23.53 6.39 29.59 6.39Q36.86 6.39 41.08 11.03Q45.31 15.67 45.31 23.69L45.31 54.69L54.3 54.69L54.3 0L45.31 0L45.31 8.41Q42.05 3.42 37.72 1Q33.41 -1.42 27.69 -1.42Q18.27 -1.42 13.38 4.44Q8.5 10.3 8.5 21.58ZM31.11 56L31.11 56Z"/><path id="DejaVuSans-45" d="M48.69 27.3Q48.69 37.2 44.61 42.84Q40.53 48.48 33.41 48.48Q26.27 48.48 22.19 42.84Q18.11 37.2 18.11 27.3Q18.11 17.39 22.19 11.75Q26.27 6.11 33.41 6.11Q40.53 6.11 44.61 11.75Q48.69 17.39 48.69 27.3ZM18.11 46.39Q20.95 51.27 25.27 53.62Q29.59 56 35.59 56Q45.56 56 51.78 48.09Q58.02 40.19 58.02 27.3Q58.02 14.41 51.78 6.48Q45.56 -1.42 35.59 -1.42Q29.59 -1.42 25.27 0.95Q20.95 3.33 18.11 8.2L18.11 0L9.08 0L9.08 75.98L18.11 75.98L18.11 46.39Z"/><path id="DejaVuSans-72" d="M25 67.92Q21.09 67.92 18.41 65.2Q15.72 62.5 15.72 58.59Q15.72 54.73 18.41 52.08Q21.09 49.42 25 49.42Q28.91 49.42 31.59 52.08Q34.28 54.73 34.28 58.59Q34.28 62.45 31.56 65.19Q28.86 67.92 25 67.92ZM25 74.22Q28.12 74.22 31 73.02Q33.89 71.83 35.98 69.58Q38.23 67.39 39.36 64.59Q40.48 61.81 40.48 58.59Q40.48 52.16 35.97 47.69Q31.45 43.22 24.91 43.22Q18.31 43.22 13.91 47.61Q9.52 52 9.52 58.59Q9.52 65.14 14 69.67Q18.5 74.22 25 74.22Z"/><path id="DejaVuSans-cd2" d="M73.19 30.42L73.19 21.69Q68.06 17.88 63.69 16.19Q59.33 14.5 54.59 14.5Q49.22 14.5 42.09 17.39Q41.61 17.58 41.27 17.72Q40.97 17.83 40.23 18.11Q32.67 21.09 28.08 21.09Q23.78 21.09 19.58 19.23Q15.38 17.39 10.59 13.28L10.59 22.02Q15.72 25.83 20.09 27.52Q24.47 29.2 29.2 29.2Q34.58 29.2 41.75 26.31Q42.28 26.08 42.53 25.98Q42.83 25.88 43.56 25.59Q51.12 22.61 55.72 22.61Q59.91 22.61 64.03 24.44Q68.17 26.27 73.19 30.42ZM73.19 49.42L73.19 40.72Q68.06 36.86 63.69 35.17Q59.33 33.5 54.59 33.5Q49.22 33.5 42.09 36.38Q41.61 36.58 41.27 36.72Q40.97 36.81 40.23 37.11Q32.67 40.09 28.08 40.09Q23.78 40.09 19.58 38.23Q15.38 36.38 10.59 32.33L10.59 41.02Q15.72 44.83 20.09 46.5Q24.47 48.19 29.2 48.19Q34.58 48.19 41.75 45.31Q42.23 45.12 42.48 45.02Q42.83 44.88 43.56 44.58Q51.12 41.61 55.72 41.61Q59.91 41.61 64.03 43.44Q68.17 45.27 73.19 49.42Z"/><path id="DejaVuSans-Bold-2b" d="M9.19 72.91L27.98 72.91L27.98 45.12L55.72 45.12L55.72 72.91L74.52 72.91L74.52 0L55.72 0L55.72 30.91L27.98 30.91L27.98 0L9.19 0L9.19 72.91Z"/><path id="DejaVuSans-Bold-46" d="M52.59 52.98L52.59 38.72Q49.03 41.16 45.44 42.33Q41.84 43.5 37.98 43.5Q30.67 43.5 26.59 39.23Q22.52 34.97 22.52 27.3Q22.52 19.62 26.59 15.34Q30.67 11.08 37.98 11.08Q42.09 11.08 45.78 12.3Q49.47 13.53 52.59 15.92L52.59 1.61Q48.48 0.09 44.27 -0.66Q40.05 -1.42 35.8 -1.42Q21 -1.42 12.64 6.17Q4.3 13.77 4.3 27.3Q4.3 40.83 12.64 48.41Q21 56 35.8 56Q40.09 56 44.27 55.25Q48.44 54.5 52.59 52.98Z"/><path id="DejaVuSans-Bold-52" d="M34.42 43.5Q28.61 43.5 25.56 39.33Q22.52 35.16 22.52 27.3Q22.52 19.44 25.56 15.25Q28.61 11.08 34.42 11.08Q40.14 11.08 43.16 15.25Q46.19 19.44 46.19 27.3Q46.19 35.16 43.16 39.33Q40.14 43.5 34.42 43.5ZM34.42 56Q48.53 56 56.47 48.38Q64.41 40.77 64.41 27.3Q64.41 13.81 56.47 6.19Q48.53 -1.42 34.42 -1.42Q20.27 -1.42 12.28 6.19Q4.3 13.81 4.3 27.3Q4.3 40.77 12.28 48.38Q20.27 56 34.42 56Z"/><path id="DejaVuSans-Bold-53" d="M25.88 7.91L25.88 -20.8L8.41 -20.8L8.41 54.69L25.88 54.69L25.88 46.69Q29.5 51.47 33.89 53.73Q38.28 56 44 56Q54.11 56 60.59 47.97Q67.09 39.94 67.09 27.3Q67.09 14.66 60.59 6.61Q54.11 -1.42 44 -1.42Q38.28 -1.42 33.89 0.84Q29.5 3.12 25.88 7.91ZM37.5 43.31Q31.89 43.31 28.88 39.19Q25.88 35.06 25.88 27.3Q25.88 19.53 28.88 15.41Q31.89 11.28 37.5 11.28Q43.11 11.28 46.06 15.38Q49.03 19.48 49.03 27.3Q49.03 35.11 46.06 39.2Q43.11 43.31 37.5 43.31Z"/><path id="DejaVuSans-Bold-57" d="M27.48 70.22L27.48 54.69L45.52 54.69L45.52 42.19L27.48 42.19L27.48 19Q27.48 15.19 29 13.84Q30.52 12.5 35.02 12.5L44 12.5L44 0L29 0Q18.66 0 14.33 4.31Q10.02 8.64 10.02 19L10.02 42.19L1.31 42.19L1.31 54.69L10.02 54.69L10.02 70.22L27.48 70.22Z"/><path id="DejaVuSans-Bold-55" d="M49.03 39.8Q46.73 40.88 44.45 41.38Q42.19 41.89 39.89 41.89Q33.16 41.89 29.52 37.56Q25.88 33.25 25.88 25.2L25.88 0L8.41 0L8.41 54.69L25.88 54.69L25.88 45.7Q29.25 51.08 33.61 53.53Q37.98 56 44.09 56Q44.97 56 45.98 55.92Q47.02 55.86 48.97 55.61L49.03 39.8Z"/><path id="DejaVuSans-Bold-13ac" d="M31 75.98L65.72 75.98L65.72 0L48.09 0L48.09 64.5L34.72 64.5Q31 64.5 29.53 63.16Q28.08 61.81 28.08 58.5L28.08 54.69L41.8 54.69L41.8 42.19L28.08 42.19L28.08 0L10.59 0L10.59 42.19L1.91 42.19L1.91 54.69L10.59 54.69L10.59 58.5Q10.59 67.44 15.58 71.7Q20.56 75.98 31 75.98Z"/><path id="DejaVuSans-Bold-4a" d="M45.61 9.28Q42 4.5 37.64 2.25Q33.3 0 27.59 0Q17.58 0 11.03 7.88Q4.5 15.77 4.5 27.98Q4.5 40.23 11.03 48.06Q17.58 55.91 27.59 55.91Q33.3 55.91 37.64 53.66Q42 51.42 45.61 46.58L45.61 54.69L63.19 54.69L63.19 5.52Q63.19 -7.67 54.86 -14.62Q46.53 -21.58 30.72 -21.58Q25.59 -21.58 20.8 -20.8Q16.02 -20.02 11.19 -18.41L11.19 -4.78Q15.77 -7.42 20.16 -8.72Q24.56 -10.02 29 -10.02Q37.59 -10.02 41.59 -6.25Q45.61 -2.48 45.61 5.52L45.61 9.28ZM34.08 43.31Q28.66 43.31 25.62 39.3Q22.61 35.3 22.61 27.98Q22.61 20.45 25.53 16.58Q28.47 12.7 34.08 12.7Q39.55 12.7 42.58 16.7Q45.61 20.7 45.61 27.98Q45.61 35.3 42.58 39.3Q39.55 43.31 34.08 43.31Z"/><path id="DejaVuSans-Bold-4b" d="M63.38 33.3L63.38 0L45.8 0L45.8 5.42L45.8 25.39Q45.8 32.56 45.48 35.25Q45.17 37.94 44.39 39.2Q43.36 40.92 41.59 41.88Q39.84 42.83 37.59 42.83Q32.12 42.83 29 38.59Q25.88 34.38 25.88 26.91L25.88 0L8.41 0L8.41 75.98L25.88 75.98L25.88 46.69Q29.83 51.47 34.27 53.73Q38.72 56 44.09 56Q53.56 56 58.47 50.19Q63.38 44.39 63.38 33.3Z"/><path id="DejaVuSans-Bold-56" d="M51.12 52.98L51.12 39.7Q45.52 42.05 40.28 43.22Q35.06 44.39 30.42 44.39Q25.44 44.39 23.02 43.14Q20.61 41.89 20.61 39.31Q20.61 37.2 22.44 36.08Q24.27 34.97 29 34.42L32.08 33.98Q45.52 32.28 50.14 28.38Q54.78 24.47 54.78 16.11Q54.78 7.38 48.33 2.97Q41.89 -1.42 29.11 -1.42Q23.69 -1.42 17.89 -0.56Q12.11 0.3 6 2L6 15.28Q11.23 12.75 16.72 11.47Q22.22 10.2 27.88 10.2Q33.02 10.2 35.59 11.61Q38.19 13.03 38.19 15.83Q38.19 18.17 36.41 19.31Q34.62 20.45 29.3 21.09L26.22 21.48Q14.55 22.95 9.86 26.91Q5.17 30.86 5.17 38.92Q5.17 47.61 11.12 51.8Q17.09 56 29.39 56Q34.23 56 39.55 55.27Q44.88 54.55 51.12 52.98Z"/><path id="DejaVuSans-Bold-13ab" d="M48.09 75.98L65.72 75.98L65.72 61.72L48.09 61.72L48.09 75.98ZM44.48 75.98L44.48 64.5L34.81 64.5Q31.16 64.5 29.73 63.16Q28.33 61.81 28.33 58.5L28.33 54.69L65.72 54.69L65.72 0L48.09 0L48.09 42.19L28.33 42.19L28.33 0L10.69 0L10.69 42.19L2.09 42.19L2.09 54.69L10.69 54.69L10.69 58.5Q10.69 67.44 15.67 71.7Q20.66 75.98 31.11 75.98L44.48 75.98Z"/><path id="DejaVuSans-Bold-b" d="M37.7 -13.19L23.19 -13.19Q15.72 -1.12 12.16 9.73Q8.59 20.61 8.59 31.3Q8.59 42 12.17 52.95Q15.77 63.92 23.19 75.88L37.7 75.88Q31.45 64.31 28.33 53.25Q25.2 42.19 25.2 31.39Q25.2 20.61 28.3 9.52Q31.39 -1.56 37.7 -13.19Z"/><path id="DejaVuSans-Bold-2c" d="M9.19 72.91L27.98 72.91L27.98 0L9.19 0L9.19 72.91Z"/><path id="DejaVuSans-Bold-26" d="M67 4Q61.81 1.31 56.2 -0.05Q50.59 -1.42 44.48 -1.42Q26.27 -1.42 15.62 8.77Q4.98 18.95 4.98 36.38Q4.98 53.86 15.62 64.03Q26.27 74.22 44.48 74.22Q50.59 74.22 56.2 72.84Q61.81 71.48 67 68.8L67 53.72Q61.77 57.28 56.69 58.94Q51.61 60.59 46 60.59Q35.94 60.59 30.17 54.14Q24.42 47.7 24.42 36.38Q24.42 25.09 30.17 18.64Q35.94 12.2 46 12.2Q51.61 12.2 56.69 13.86Q61.77 15.53 67 19.09L67 4Z"/><path id="DejaVuSans-Bold-24" d="M53.42 13.28L24.03 13.28L19.39 0L0.48 0L27.48 72.91L49.91 72.91L76.91 0L58.02 0L53.42 13.28ZM28.72 26.81L48.69 26.81L38.72 55.81L28.72 26.81Z"/><path id="DejaVuSans-Bold-32" d="M42.48 60.59Q33.89 60.59 29.16 54.25Q24.42 47.91 24.42 36.38Q24.42 24.91 29.16 18.55Q33.89 12.2 42.48 12.2Q51.12 12.2 55.86 18.55Q60.59 24.91 60.59 36.38Q60.59 47.91 55.86 54.25Q51.12 60.59 42.48 60.59ZM42.48 74.22Q60.06 74.22 70.02 64.16Q79.98 54.11 79.98 36.38Q79.98 18.7 70.02 8.64Q60.06 -1.42 42.48 -1.42Q24.95 -1.42 14.97 8.64Q4.98 18.7 4.98 36.38Q4.98 54.11 14.97 64.16Q24.95 74.22 42.48 74.22Z"/><path id="DejaVuSans-Bold-5b" d="M22.22 27.98L2.48 54.69L21 54.69L32.17 38.48L43.5 54.69L62.02 54.69L42.28 28.08L62.98 0L44.48 0L32.17 17.28L20.02 0L1.52 0L22.22 27.98Z"/><path id="DejaVuSans-Bold-14" d="M11.72 12.98L28.33 12.98L28.33 60.11L11.28 56.59L11.28 69.39L28.22 72.91L46.09 72.91L46.09 12.98L62.7 12.98L62.7 0L11.72 0L11.72 12.98Z"/><path id="DejaVuSans-Bold-19" d="M36.19 35.98Q31.25 35.98 28.78 32.78Q26.31 29.59 26.31 23.19Q26.31 16.8 28.78 13.59Q31.25 10.41 36.19 10.41Q41.16 10.41 43.62 13.59Q46.09 16.8 46.09 23.19Q46.09 29.59 43.62 32.78Q41.16 35.98 36.19 35.98ZM59.42 71L59.42 57.52Q54.78 59.72 50.67 60.77Q46.58 61.81 42.67 61.81Q34.28 61.81 29.59 57.14Q24.91 52.48 24.12 43.31Q27.34 45.7 31.09 46.89Q34.86 48.09 39.31 48.09Q50.48 48.09 57.34 41.55Q64.2 35.02 64.2 24.42Q64.2 12.7 56.53 5.64Q48.88 -1.42 35.98 -1.42Q21.78 -1.42 13.98 8.17Q6.2 17.78 6.2 35.41Q6.2 53.47 15.31 63.8Q24.42 74.12 40.28 74.12Q45.31 74.12 50.05 73.34Q54.78 72.56 59.42 71Z"/><path id="DejaVuSans-Bold-f" d="M10.2 18.89L27.78 18.89L27.78 4L15.72 -14.2L5.33 -14.2L10.2 4L10.2 18.89Z"/><path id="DejaVuSans-Bold-1b" d="M34.81 32.62Q29.55 32.62 26.7 29.73Q23.88 26.86 23.88 21.48Q23.88 16.11 26.7 13.25Q29.55 10.41 34.81 10.41Q40.05 10.41 42.83 13.25Q45.61 16.11 45.61 21.48Q45.61 26.91 42.83 29.77Q40.05 32.62 34.81 32.62ZM21.09 38.81Q14.45 40.83 11.08 44.97Q7.72 49.12 7.72 55.33Q7.72 64.55 14.59 69.38Q21.48 74.22 34.81 74.22Q48.05 74.22 54.92 69.41Q61.81 64.59 61.81 55.33Q61.81 49.12 58.42 44.97Q55.03 40.83 48.39 38.81Q55.81 36.77 59.59 32.16Q63.38 27.55 63.38 20.52Q63.38 9.67 56.17 4.12Q48.97 -1.42 34.81 -1.42Q20.61 -1.42 13.36 4.12Q6.11 9.67 6.11 20.52Q6.11 27.55 9.89 32.16Q13.67 36.77 21.09 38.81ZM25.48 53.42Q25.48 49.08 27.91 46.73Q30.33 44.39 34.81 44.39Q39.2 44.39 41.59 46.73Q44 49.08 44 53.42Q44 57.77 41.59 60.08Q39.2 62.41 34.81 62.41Q30.33 62.41 27.91 60.06Q25.48 57.72 25.48 53.42Z"/><path id="DejaVuSans-Bold-c" d="M8.02 -13.19Q14.27 -1.56 17.39 9.52Q20.52 20.61 20.52 31.39Q20.52 42.19 17.39 53.25Q14.27 64.31 8.02 75.88L22.52 75.88Q29.94 63.92 33.52 52.95Q37.11 42 37.11 31.3Q37.11 20.61 33.55 9.73Q29.98 -1.12 22.52 -13.19L8.02 -13.19Z"/></defs><!-- Helicopter overflight noise certification (ICAO Annex 16, Chapter 8) --><g fill="#1a1a1a" transform="translate(31.15 30) scale(0.22 -0.22)"><use href="#DejaVuSans-Bold-2b"/><use href="#DejaVuSans-Bold-48" x="83.69"/><use href="#DejaVuSans-Bold-4f" x="151.52"/><use href="#DejaVuSans-Bold-4c" x="185.8"/><use href="#DejaVuSans-Bold-46" x="220.08"/><use href="#DejaVuSans-Bold-52" x="279.36"/><use href="#DejaVuSans-Bold-53" x="348.06"/><use href="#DejaVuSans-Bold-57" x="419.64"/><use href="#DejaVuSans-Bold-48" x="467.44"/><use href="#DejaVuSans-Bold-55" x="535.27"/><use href="#DejaVuSans-Bold-52" x="619.39"/><use href="#DejaVuSans-Bold-59" x="688.09"/><use href="#DejaVuSans-Bold-48" x="753.28"/><use href="#DejaVuSans-Bold-55" x="821.11"/><use href="#DejaVuSans-Bold-13ac" x="870.42"/><use href="#DejaVuSans-Bold-4c" x="944.55"/><use href="#DejaVuSans-Bold-4a" x="978.83"/><use href="#DejaVuSans-Bold-4b" x="1050.41"/><use href="#DejaVuSans-Bold-57" x="1121.59"/><use href="#DejaVuSans-Bold-51" x="1204.2"/><use href="#DejaVuSans-Bold-52" x="1275.39"/><use href="#DejaVuSans-Bold-4c" x="1344.09"/><use href="#DejaVuSans-Bold-56" x="1378.38"/><use href="#DejaVuSans-Bold-48" x="1437.89"/><use href="#DejaVuSans-Bold-46" x="1540.53"/><use href="#DejaVuSans-Bold-48" x="1599.81"/><use href="#DejaVuSans-Bold-55" x="1667.64"/><use href="#DejaVuSans-Bold-57" x="1716.95"/><use href="#DejaVuSans-Bold-4c" x="1764.75"/><use href="#DejaVuSans-Bold-13ab" x="1799.03"/><use href="#DejaVuSans-Bold-46" x="1873.16"/><use href="#DejaVuSans-Bold-44" x="1932.44"/><use href="#DejaVuSans-Bold-57" x="1999.92"/><use href="#DejaVuSans-Bold-4c" x="2047.72"/><use href="#DejaVuSans-Bold-52" x="2082"/><use href="#DejaVuSans-Bold-51" x="2150.7"/><use href="#DejaVuSans-Bold-b" x="2256.7"/><use href="#DejaVuSans-Bold-2c" x="2302.41"/><use href="#DejaVuSans-Bold-26" x="2339.61"/><use href="#DejaVuSans-Bold-24" x="2413"/><use href="#DejaVuSans-Bold-32" x="2490.39"/><use href="#DejaVuSans-Bold-24" x="2610.22"/><use href="#DejaVuSans-Bold-51" x="2687.61"/><use href="#DejaVuSans-Bold-51" x="2758.8"/><use href="#DejaVuSans-Bold-48" x="2829.98"/><use href="#DejaVuSans-Bold-5b" x="2897.81"/><use href="#DejaVuSans-Bold-14" x="2997.12"/><use href="#DejaVuSans-Bold-19" x="3066.7"/><use href="#DejaVuSans-Bold-f" x="3136.28"/><use href="#DejaVuSans-Bold-26" x="3209.08"/><use href="#DejaVuSans-Bold-4b" x="3282.47"/><use href="#DejaVuSans-Bold-44" x="3353.66"/><use href="#DejaVuSans-Bold-53" x="3421.14"/><use href="#DejaVuSans-Bold-57" x="3492.72"/><use href="#DejaVuSans-Bold-48" x="3540.52"/><use href="#DejaVuSans-Bold-55" x="3608.34"/><use href="#DejaVuSans-Bold-1b" x="3692.47"/><use href="#DejaVuSans-Bold-c" x="3762.05"/></g><line x1="40.0" y1="470.0" x2="560.0" y2="470.0" stroke="#1a1a1a" stroke-width="2.2" stroke-linecap="round"/><line x1="40.0" y1="470.0" x2="32.0" y2="479.0" stroke="#666666" stroke-width="1.1" stroke-linecap="round"/><line x1="64.0" y1="470.0" x2="56.0" y2="479.0" stroke="#666666" stroke-width="1.1" stroke-linecap="round"/><line x1="88.0" y1="470.0" x2="80.0" y2="479.0" stroke="#666666" stroke-width="1.1" stroke-linecap="round"/><line x1="112.0" y1="470.0" x2="104.0" y2="479.0" stroke="#666666" stroke-width="1.1" stroke-linecap="round"/><line x1="136.0" y1="470.0" x2="128.0" y2="479.0" stroke="#666666" stroke-width="1.1" stroke-linecap="round"/><line x1="160.0" y1="470.0" x2="152.0" y2="479.0" stroke="#666666" stroke-width="1.1" stroke-linecap="round"/><line x1="184.0" y1="470.0" x2="176.0" y2="479.0" stroke="#666666" stroke-width="1.1" stroke-linecap="round"/><line x1="208.0" y1="470.0" x2="200.0" y2="479.0" stroke="#666666" stroke-width="1.1" stroke-linecap="round"/><line x1="232.0" y1="470.0" x2="224.0" y2="479.0" stroke="#666666" stroke-width="1.1" stroke-linecap="round"/><line x1="256.0" y1="470.0" x2="248.0" y2="479.0" stroke="#666666" stroke-width="1.1" stroke-linecap="round"/><line x1="280.0" y1="470.0" x2="272.0" y2="479.0" stroke="#666666" stroke-width="1.1" stroke-linecap="round"/><line x1="304.0" y1="470.0" x2="296.0" y2="479.0" stroke="#666666" stroke-width="1.1" stroke-linecap="round"/><line x1="328.0" y1="470.0" x2="320.0" y2="479.0" stroke="#666666" stroke-width="1.1" stroke-linecap="round"/><line x1="352.0" y1="470.0" x2="344.0" y2="479.0" stroke="#666666" stroke-width="1.1" stroke-linecap="round"/><line x1="376.0" y1="470.0" x2="368.0" y2="479.0" stroke="#666666" stroke-width="1.1" stroke-linecap="round"/><line x1="400.0" y1="470.0" x2="392.0" y2="479.0" stroke="#666666" stroke-width="1.1" stroke-linecap="round"/><line x1="424.0" y1="470.0" x2="416.0" y2="479.0" stroke="#666666" stroke-width="1.1" stroke-linecap="round"/><line x1="448.0" y1="470.0" x2="440.0" y2="479.0" stroke="#666666" stroke-width="1.1" stroke-linecap="round"/><line x1="472.0" y1="470.0" x2="464.0" y2="479.0" stroke="#666666" stroke-width="1.1" stroke-linecap="round"/><line x1="496.0" y1="470.0" x2="488.0" y2="479.0" stroke="#666666" stroke-width="1.1" stroke-linecap="round"/><line x1="520.0" y1="470.0" x2="512.0" y2="479.0" stroke="#666666" stroke-width="1.1" stroke-linecap="round"/><line x1="544.0" y1="470.0" x2="536.0" y2="479.0" stroke="#666666" stroke-width="1.1" stroke-linecap="round"/><line x1="70.0" y1="150.0" x2="530.0" y2="150.0" stroke="#666666" stroke-width="1.3" stroke-dasharray="8,6" stroke-linecap="round"/><line x1="530.0" y1="150.0" x2="547.0" y2="150.0" stroke="#1a1a1a" stroke-width="2.0" stroke-linecap="round"/><path d="M 556.0 150.0 L 547.0 153.6 L 547.0 146.4 Z" fill="#1a1a1a" stroke="none" stroke-width="1.5" stroke-linejoin="round"/><!-- level flight at 0.9 $V_H$ --><g fill="#1a1a1a" transform="translate(72 112) scale(0.16 -0.16)"><use href="#DejaVuSans-4f"/><use href="#DejaVuSans-48" x="27.78"/><use href="#DejaVuSans-59" x="89.31"/><use href="#DejaVuSans-48" x="148.5"/><use href="#DejaVuSans-4f" x="210.03"/><use href="#DejaVuSans-13b0" x="269.59"/><use href="#DejaVuSans-4c" x="332.58"/><use href="#DejaVuSans-4a" x="360.36"/><use href="#DejaVuSans-4b" x="423.84"/><use href="#DejaVuSans-57" x="487.22"/><use href="#DejaVuSans-44" x="558.2"/><use href="#DejaVuSans-57" x="619.48"/><use href="#DejaVuSans-13" x="690.47"/><use href="#DejaVuSans-11" x="754.09"/><use href="#DejaVuSans-1c" x="785.88"/></g><g fill="#1a1a1a" transform="translate(213 112) scale(0.16 -0.16)"><use href="#DejaVuSans-Oblique-39"/></g><g fill="#1a1a1a" transform="translate(223.95 115.52) scale(0.112 -0.112)"><use href="#DejaVuSans-Oblique-2b"/></g><line x1="240.0" y1="126.0" x2="360.0" y2="126.0" stroke="#1a1a1a" stroke-width="3.0" stroke-linecap="round"/><line x1="300.0" y1="126.0" x2="300.0" y2="140.0" stroke="#1a1a1a" stroke-width="2.2" stroke-linecap="round"/><ellipse cx="300.0" cy="152.0" rx="27.0" ry="14.0" fill="#f0f2f5" stroke="#1a1a1a" stroke-width="2.0"/><line x1="274.0" y1="149.0" x2="218.0" y2="143.0" stroke="#1a1a1a" stroke-width="2.6" stroke-linecap="round"/><line x1="218.0" y1="132.0" x2="218.0" y2="152.0" stroke="#1a1a1a" stroke-width="2.0" stroke-linecap="round"/><line x1="286.0" y1="166.0" x2="286.0" y2="174.0" stroke="#1a1a1a" stroke-width="1.8" stroke-linecap="round"/><line x1="316.0" y1="166.0" x2="316.0" y2="174.0" stroke="#1a1a1a" stroke-width="1.8" stroke-linecap="round"/><line x1="276.0" y1="174.0" x2="328.0" y2="174.0" stroke="#1a1a1a" stroke-width="2.2" stroke-linecap="round"/><path d="M 271.5 185.0 A 30 30 0 0 0 291.0 204.5" fill="none" stroke="#666666" stroke-width="1.2" stroke-linejoin="round"/><path d="M 309.0 204.5 A 30 30 0 0 0 328.5 185.0" fill="none" stroke="#666666" stroke-width="1.2" stroke-linejoin="round"/><path d="M 250.6 191.6 A 52 52 0 0 0 284.4 225.4" fill="none" stroke="#666666" stroke-width="1.2" stroke-linejoin="round"/><path d="M 315.6 225.4 A 52 52 0 0 0 349.4 191.6" fill="none" stroke="#666666" stroke-width="1.2" stroke-linejoin="round"/><path d="M 229.7 198.2 A 74 74 0 0 0 277.8 246.3" fill="none" stroke="#666666" stroke-width="1.2" stroke-linejoin="round"/><path d="M 322.2 246.3 A 74 74 0 0 0 370.3 198.2" fill="none" stroke="#666666" stroke-width="1.2" stroke-linejoin="round"/><line x1="390.0" y1="306.0" x2="390.0" y2="461.0" stroke="#666666" stroke-width="1.2" stroke-linecap="round"/><path d="M 390.0 470.0 L 386.4 461.0 L 393.6 461.0 Z" fill="#666666" stroke="none" stroke-width="1.5" stroke-linejoin="round"/><line x1="390.0" y1="314.0" x2="390.0" y2="159.0" stroke="#666666" stroke-width="1.2" stroke-linecap="round"/><path d="M 390.0 150.0 L 393.6 159.0 L 386.4 159.0 Z" fill="#666666" stroke="none" stroke-width="1.5" stroke-linejoin="round"/><!-- 150 m (492 ft) --><g fill="#1a1a1a" transform="translate(399 316) scale(0.16 -0.16)"><use href="#DejaVuSans-14"/><use href="#DejaVuSans-18" x="63.62"/><use href="#DejaVuSans-13" x="127.25"/><use href="#DejaVuSans-50" x="222.66"/><use href="#DejaVuSans-b" x="351.84"/><use href="#DejaVuSans-17" x="390.86"/><use href="#DejaVuSans-1c" x="454.48"/><use href="#DejaVuSans-15" x="518.11"/><use href="#DejaVuSans-49" x="613.52"/><use href="#DejaVuSans-57" x="646.97"/><use href="#DejaVuSans-c" x="686.17"/></g><rect x="296.8" y="444.0" width="6.4" height="9.600000000000001" rx="2.0" fill="#1a1a1a" stroke="none" stroke-width="1.5"/><rect x="295.2" y="453.6" width="9.600000000000001" height="27.200000000000003" rx="3.2" fill="#1f77b4" stroke="none" stroke-width="1.5"/><line x1="300.0" y1="480.8" x2="300.0" y2="470.0" stroke="#1a1a1a" stroke-width="2.2" stroke-linecap="round"/><line x1="287.2" y1="470.0" x2="312.8" y2="470.0" stroke="#1a1a1a" stroke-width="2.2" stroke-linecap="round"/><!-- centre microphone --><g fill="#1a1a1a" transform="translate(229.16 508) scale(0.15 -0.15)"><use href="#DejaVuSans-46"/><use href="#DejaVuSans-48" x="54.98"/><use href="#DejaVuSans-51" x="116.52"/><use href="#DejaVuSans-57" x="179.89"/><use href="#DejaVuSans-55" x="219.09"/><use href="#DejaVuSans-48" x="258"/><use href="#DejaVuSans-50" x="351.31"/><use href="#DejaVuSans-4c" x="448.72"/><use href="#DejaVuSans-46" x="476.5"/><use href="#DejaVuSans-55" x="531.48"/><use href="#DejaVuSans-52" x="570.39"/><use href="#DejaVuSans-53" x="631.58"/><use href="#DejaVuSans-4b" x="695.06"/><use href="#DejaVuSans-52" x="758.44"/><use href="#DejaVuSans-51" x="819.62"/><use href="#DejaVuSans-48" x="883"/></g><!-- Plan view --><g fill="#1a1a1a" transform="translate(689.04 96) scale(0.17 -0.17)"><use href="#DejaVuSans-Bold-33"/><use href="#DejaVuSans-Bold-4f" x="73.3"/><use href="#DejaVuSans-Bold-44" x="107.58"/><use href="#DejaVuSans-Bold-51" x="175.06"/><use href="#DejaVuSans-Bold-59" x="281.06"/><use href="#DejaVuSans-Bold-4c" x="346.25"/><use href="#DejaVuSans-Bold-48" x="380.53"/><use href="#DejaVuSans-Bold-5a" x="448.36"/></g><line x1="620.0" y1="190.0" x2="851.0" y2="190.0" stroke="#1a1a1a" stroke-width="2.0" stroke-linecap="round"/><path d="M 860.0 190.0 L 851.0 193.6 L 851.0 186.4 Z" fill="#1a1a1a" stroke="none" stroke-width="1.5" stroke-linejoin="round"/><!-- track --><g fill="#666666" transform="translate(816.37 176) scale(0.14 -0.14)"><use href="#DejaVuSans-57"/><use href="#DejaVuSans-55" x="39.2"/><use href="#DejaVuSans-44" x="80.31"/><use href="#DejaVuSans-46" x="141.59"/><use href="#DejaVuSans-4e" x="196.58"/></g><ellipse cx="680.0" cy="190.0" rx="15.0" ry="15.0" fill="none" stroke="#666666" stroke-width="1.2"/><circle cx="680.0" cy="190.0" r="4.5" fill="#1a1a1a" stroke="none" stroke-width="1.5"/><line x1="735.0" y1="120.0" x2="735.0" y2="260.0" stroke="#666666" stroke-width="1.1" stroke-dasharray="5,4" stroke-linecap="round"/><circle cx="735.0" cy="120.0" r="6.0" fill="#d62728" stroke="none" stroke-width="1.5"/><circle cx="735.0" cy="120.0" r="2.2" fill="#ffffff" stroke="none" stroke-width="1.5"/><circle cx="735.0" cy="190.0" r="6.0" fill="#d62728" stroke="none" stroke-width="1.5"/><circle cx="735.0" cy="190.0" r="2.2" fill="#ffffff" stroke="none" stroke-width="1.5"/><circle cx="735.0" cy="260.0" r="6.0" fill="#d62728" stroke="none" stroke-width="1.5"/><circle cx="735.0" cy="260.0" r="2.2" fill="#ffffff" stroke="none" stroke-width="1.5"/><line x1="772.0" y1="151.0" x2="772.0" y2="129.0" stroke="#666666" stroke-width="1.2" stroke-linecap="round"/><path d="M 772.0 120.0 L 775.6 129.0 L 768.4 129.0 Z" fill="#666666" stroke="none" stroke-width="1.5" stroke-linejoin="round"/><line x1="772.0" y1="159.0" x2="772.0" y2="181.0" stroke="#666666" stroke-width="1.2" stroke-linecap="round"/><path d="M 772.0 190.0 L 768.4 181.0 L 775.6 181.0 Z" fill="#666666" stroke="none" stroke-width="1.5" stroke-linejoin="round"/><!-- 150 m --><g fill="#1a1a1a" transform="translate(781 161) scale(0.14 -0.14)"><use href="#DejaVuSans-14"/><use href="#DejaVuSans-18" x="63.62"/><use href="#DejaVuSans-13" x="127.25"/><use href="#DejaVuSans-50" x="222.66"/></g><line x1="772.0" y1="221.0" x2="772.0" y2="199.0" stroke="#666666" stroke-width="1.2" stroke-linecap="round"/><path d="M 772.0 190.0 L 775.6 199.0 L 768.4 199.0 Z" fill="#666666" stroke="none" stroke-width="1.5" stroke-linejoin="round"/><line x1="772.0" y1="229.0" x2="772.0" y2="251.0" stroke="#666666" stroke-width="1.2" stroke-linecap="round"/><path d="M 772.0 260.0 L 768.4 251.0 L 775.6 251.0 Z" fill="#666666" stroke="none" stroke-width="1.5" stroke-linejoin="round"/><!-- 150 m --><g fill="#1a1a1a" transform="translate(781 231) scale(0.14 -0.14)"><use href="#DejaVuSans-14"/><use href="#DejaVuSans-18" x="63.62"/><use href="#DejaVuSans-13" x="127.25"/><use href="#DejaVuSans-50" x="222.66"/></g><line x1="741.0" y1="120.0" x2="772.0" y2="120.0" stroke="#666666" stroke-width="0.9" stroke-dasharray="3,3" stroke-linecap="round"/><line x1="741.0" y1="190.0" x2="772.0" y2="190.0" stroke="#666666" stroke-width="0.9" stroke-dasharray="3,3" stroke-linecap="round"/><line x1="741.0" y1="260.0" x2="772.0" y2="260.0" stroke="#666666" stroke-width="0.9" stroke-dasharray="3,3" stroke-linecap="round"/><!-- 3 microphones on a line across the track --><g fill="#666666" transform="translate(582.42 296) scale(0.14 -0.14)"><use href="#DejaVuSans-16"/><use href="#DejaVuSans-50" x="95.41"/><use href="#DejaVuSans-4c" x="192.81"/><use href="#DejaVuSans-46" x="220.59"/><use href="#DejaVuSans-55" x="275.58"/><use href="#DejaVuSans-52" x="314.48"/><use href="#DejaVuSans-53" x="375.67"/><use href="#DejaVuSans-4b" x="439.16"/><use href="#DejaVuSans-52" x="502.53"/><use href="#DejaVuSans-51" x="563.72"/><use href="#DejaVuSans-48" x="627.09"/><use href="#DejaVuSans-56" x="688.62"/><use href="#DejaVuSans-52" x="772.5"/><use href="#DejaVuSans-51" x="833.69"/><use href="#DejaVuSans-44" x="928.84"/><use href="#DejaVuSans-4f" x="1021.91"/><use href="#DejaVuSans-4c" x="1049.69"/><use href="#DejaVuSans-51" x="1077.47"/><use href="#DejaVuSans-48" x="1140.84"/><use href="#DejaVuSans-44" x="1234.16"/><use href="#DejaVuSans-46" x="1295.44"/><use href="#DejaVuSans-55" x="1350.42"/><use href="#DejaVuSans-52" x="1389.33"/><use href="#DejaVuSans-56" x="1450.52"/><use href="#DejaVuSans-56" x="1502.61"/><use href="#DejaVuSans-57" x="1586.48"/><use href="#DejaVuSans-4b" x="1625.69"/><use href="#DejaVuSans-48" x="1689.06"/><use href="#DejaVuSans-57" x="1782.38"/><use href="#DejaVuSans-55" x="1821.58"/><use href="#DejaVuSans-44" x="1862.69"/><use href="#DejaVuSans-46" x="1923.97"/><use href="#DejaVuSans-4e" x="1978.95"/></g><!-- Speed: the least of 0.9 $V_H$, 0.9 $V_{NE}$, 0.45 $V_H$ + 120 km/h and 0.45 $V_{NE}$ + 120 km/h --><g fill="#1a1a1a" transform="translate(80 540) scale(0.16 -0.16)"><use href="#DejaVuSans-36"/><use href="#DejaVuSans-53" x="63.48"/><use href="#DejaVuSans-48" x="126.97"/><use href="#DejaVuSans-48" x="188.5"/><use href="#DejaVuSans-47" x="250.03"/><use href="#DejaVuSans-1d" x="313.52"/><use href="#DejaVuSans-57" x="378.98"/><use href="#DejaVuSans-4b" x="418.19"/><use href="#DejaVuSans-48" x="481.56"/><use href="#DejaVuSans-4f" x="574.88"/><use href="#DejaVuSans-48" x="602.66"/><use href="#DejaVuSans-44" x="664.19"/><use href="#DejaVuSans-56" x="725.47"/><use href="#DejaVuSans-57" x="777.56"/><use href="#DejaVuSans-52" x="848.55"/><use href="#DejaVuSans-49" x="909.73"/><use href="#DejaVuSans-13" x="976.72"/><use href="#DejaVuSans-11" x="1040.34"/><use href="#DejaVuSans-1c" x="1072.12"/></g><g fill="#1a1a1a" transform="translate(266.81 540) scale(0.16 -0.16)"><use href="#DejaVuSans-Oblique-39"/></g><g fill="#1a1a1a" transform="translate(277.75 543.52) scale(0.112 -0.112)"><use href="#DejaVuSans-Oblique-2b"/></g><g fill="#1a1a1a" transform="translate(286.17 540) scale(0.16 -0.16)"><use href="#DejaVuSans-f"/><use href="#DejaVuSans-13" x="63.56"/><use href="#DejaVuSans-11" x="127.19"/><use href="#DejaVuSans-1c" x="158.97"/></g><g fill="#1a1a1a" transform="translate(326.87 540) scale(0.16 -0.16)"><use href="#DejaVuSans-Oblique-39"/></g><g fill="#1a1a1a" transform="translate(337.82 543.52) scale(0.112 -0.112)"><use href="#DejaVuSans-Oblique-31"/><use href="#DejaVuSans-Oblique-28" x="74.81"/></g><g fill="#1a1a1a" transform="translate(353.27 540) scale(0.16 -0.16)"><use href="#DejaVuSans-f"/><use href="#DejaVuSans-13" x="63.56"/><use href="#DejaVuSans-11" x="127.19"/><use href="#DejaVuSans-17" x="158.97"/><use href="#DejaVuSans-18" x="222.59"/></g><g fill="#1a1a1a" transform="translate(404.15 540) scale(0.16 -0.16)"><use href="#DejaVuSans-Oblique-39"/></g><g fill="#1a1a1a" transform="translate(415.1 543.52) scale(0.112 -0.112)"><use href="#DejaVuSans-Oblique-2b"/></g><g fill="#1a1a1a" transform="translate(423.52 540) scale(0.16 -0.16)"><use href="#DejaVuSans-e" x="31.78"/><use href="#DejaVuSans-14" x="147.36"/><use href="#DejaVuSans-15" x="210.98"/><use href="#DejaVuSans-13" x="274.61"/><use href="#DejaVuSans-4e" x="370.02"/><use href="#DejaVuSans-50" x="427.92"/><use href="#DejaVuSans-12" x="525.33"/><use href="#DejaVuSans-4b" x="559.02"/><use href="#DejaVuSans-44" x="654.17"/><use href="#DejaVuSans-51" x="715.45"/><use href="#DejaVuSans-47" x="778.83"/><use href="#DejaVuSans-13" x="874.09"/><use href="#DejaVuSans-11" x="937.72"/><use href="#DejaVuSans-17" x="969.5"/><use href="#DejaVuSans-18" x="1033.12"/></g><g fill="#1a1a1a" transform="translate(604.09 540) scale(0.16 -0.16)"><use href="#DejaVuSans-Oblique-39"/></g><g fill="#1a1a1a" transform="translate(615.03 543.52) scale(0.112 -0.112)"><use href="#DejaVuSans-Oblique-31"/><use href="#DejaVuSans-Oblique-28" x="74.81"/></g><g fill="#1a1a1a" transform="translate(630.49 540) scale(0.16 -0.16)"><use href="#DejaVuSans-e" x="31.78"/><use href="#DejaVuSans-14" x="147.36"/><use href="#DejaVuSans-15" x="210.98"/><use href="#DejaVuSans-13" x="274.61"/><use href="#DejaVuSans-4e" x="370.02"/><use href="#DejaVuSans-50" x="427.92"/><use href="#DejaVuSans-12" x="525.33"/><use href="#DejaVuSans-4b" x="559.02"/></g><!-- EPNL in EPNdB at the three points; at least six overflights, headwind and tailwind in equal number --><g fill="#1a1a1a" transform="translate(80 566) scale(0.16 -0.16)"><use href="#DejaVuSans-28"/><use href="#DejaVuSans-33" x="63.19"/><use href="#DejaVuSans-31" x="123.48"/><use href="#DejaVuSans-2f" x="198.3"/><use href="#DejaVuSans-4c" x="285.8"/><use href="#DejaVuSans-51" x="313.58"/><use href="#DejaVuSans-28" x="408.73"/><use href="#DejaVuSans-33" x="471.92"/><use href="#DejaVuSans-31" x="532.22"/><use href="#DejaVuSans-47" x="607.03"/><use href="#DejaVuSans-25" x="670.52"/><use href="#DejaVuSans-44" x="770.91"/><use href="#DejaVuSans-57" x="832.19"/><use href="#DejaVuSans-57" x="903.17"/><use href="#DejaVuSans-4b" x="942.38"/><use href="#DejaVuSans-48" x="1005.75"/><use href="#DejaVuSans-57" x="1099.06"/><use href="#DejaVuSans-4b" x="1138.27"/><use href="#DejaVuSans-55" x="1201.64"/><use href="#DejaVuSans-48" x="1240.55"/><use href="#DejaVuSans-48" x="1302.08"/><use href="#DejaVuSans-53" x="1395.39"/><use href="#DejaVuSans-52" x="1458.88"/><use href="#DejaVuSans-4c" x="1520.06"/><use href="#DejaVuSans-51" x="1547.84"/><use href="#DejaVuSans-57" x="1611.22"/><use href="#DejaVuSans-56" x="1650.42"/><use href="#DejaVuSans-1e" x="1702.52"/><use href="#DejaVuSans-44" x="1767.98"/><use href="#DejaVuSans-57" x="1829.27"/><use href="#DejaVuSans-4f" x="1900.25"/><use href="#DejaVuSans-48" x="1928.03"/><use href="#DejaVuSans-44" x="1989.56"/><use href="#DejaVuSans-56" x="2050.84"/><use href="#DejaVuSans-57" x="2102.94"/><use href="#DejaVuSans-56" x="2173.92"/><use href="#DejaVuSans-4c" x="2226.02"/><use href="#DejaVuSans-5b" x="2253.8"/><use href="#DejaVuSans-52" x="2344.77"/><use href="#DejaVuSans-59" x="2405.95"/><use href="#DejaVuSans-48" x="2465.14"/><use href="#DejaVuSans-55" x="2526.67"/><use href="#DejaVuSans-13b0" x="2567.78"/><use href="#DejaVuSans-4c" x="2630.77"/><use href="#DejaVuSans-4a" x="2658.55"/><use href="#DejaVuSans-4b" x="2722.03"/><use href="#DejaVuSans-57" x="2785.41"/><use href="#DejaVuSans-56" x="2824.61"/><use href="#DejaVuSans-f" x="2876.7"/><use href="#DejaVuSans-4b" x="2940.27"/><use href="#DejaVuSans-48" x="3003.64"/><use href="#DejaVuSans-44" x="3065.17"/><use href="#DejaVuSans-47" x="3126.45"/><use href="#DejaVuSans-5a" x="3189.94"/><use href="#DejaVuSans-4c" x="3271.72"/><use href="#DejaVuSans-51" x="3299.5"/><use href="#DejaVuSans-47" x="3362.88"/><use href="#DejaVuSans-44" x="3458.14"/><use href="#DejaVuSans-51" x="3519.42"/><use href="#DejaVuSans-47" x="3582.8"/><use href="#DejaVuSans-57" x="3678.06"/><use href="#DejaVuSans-44" x="3717.27"/><use href="#DejaVuSans-4c" x="3778.55"/><use href="#DejaVuSans-4f" x="3806.33"/><use href="#DejaVuSans-5a" x="3834.11"/><use href="#DejaVuSans-4c" x="3915.89"/><use href="#DejaVuSans-51" x="3943.67"/><use href="#DejaVuSans-47" x="4007.05"/><use href="#DejaVuSans-4c" x="4102.31"/><use href="#DejaVuSans-51" x="4130.09"/><use href="#DejaVuSans-48" x="4225.25"/><use href="#DejaVuSans-54" x="4286.78"/><use href="#DejaVuSans-58" x="4350.27"/><use href="#DejaVuSans-44" x="4413.64"/><use href="#DejaVuSans-4f" x="4474.92"/><use href="#DejaVuSans-51" x="4534.48"/><use href="#DejaVuSans-58" x="4597.86"/><use href="#DejaVuSans-50" x="4661.23"/><use href="#DejaVuSans-45" x="4758.64"/><use href="#DejaVuSans-48" x="4822.12"/><use href="#DejaVuSans-55" x="4883.66"/></g><!-- microphones 1.2 m above ground; the sideline pair sees the helicopter overhead at 45° (≈ 212 m) --><g fill="#666666" transform="translate(80 592) scale(0.16 -0.16)"><use href="#DejaVuSans-50"/><use href="#DejaVuSans-4c" x="97.41"/><use href="#DejaVuSans-46" x="125.19"/><use href="#DejaVuSans-55" x="180.17"/><use href="#DejaVuSans-52" x="219.08"/><use href="#DejaVuSans-53" x="280.27"/><use href="#DejaVuSans-4b" x="343.75"/><use href="#DejaVuSans-52" x="407.12"/><use href="#DejaVuSans-51" x="468.31"/><use href="#DejaVuSans-48" x="531.69"/><use href="#DejaVuSans-56" x="593.22"/><use href="#DejaVuSans-14" x="677.09"/><use href="#DejaVuSans-11" x="740.72"/><use href="#DejaVuSans-15" x="772.5"/><use href="#DejaVuSans-50" x="867.91"/><use href="#DejaVuSans-44" x="997.09"/><use href="#DejaVuSans-45" x="1058.38"/><use href="#DejaVuSans-52" x="1121.86"/><use href="#DejaVuSans-59" x="1183.05"/><use href="#DejaVuSans-48" x="1242.23"/><use href="#DejaVuSans-4a" x="1335.55"/><use href="#DejaVuSans-55" x="1399.03"/><use href="#DejaVuSans-52" x="1437.94"/><use href="#DejaVuSans-58" x="1499.12"/><use href="#DejaVuSans-51" x="1562.5"/><use href="#DejaVuSans-47" x="1625.88"/><use href="#DejaVuSans-1e" x="1689.36"/><use href="#DejaVuSans-57" x="1754.83"/><use href="#DejaVuSans-4b" x="1794.03"/><use href="#DejaVuSans-48" x="1857.41"/><use href="#DejaVuSans-56" x="1950.72"/><use href="#DejaVuSans-4c" x="2002.81"/><use href="#DejaVuSans-47" x="2030.59"/><use href="#DejaVuSans-48" x="2094.08"/><use href="#DejaVuSans-4f" x="2155.61"/><use href="#DejaVuSans-4c" x="2183.39"/><use href="#DejaVuSans-51" x="2211.17"/><use href="#DejaVuSans-48" x="2274.55"/><use href="#DejaVuSans-53" x="2367.86"/><use href="#DejaVuSans-44" x="2431.34"/><use href="#DejaVuSans-4c" x="2492.62"/><use href="#DejaVuSans-55" x="2520.41"/><use href="#DejaVuSans-56" x="2593.3"/><use href="#DejaVuSans-48" x="2645.39"/><use href="#DejaVuSans-48" x="2706.92"/><use href="#DejaVuSans-56" x="2768.45"/><use href="#DejaVuSans-57" x="2852.33"/><use href="#DejaVuSans-4b" x="2891.53"/><use href="#DejaVuSans-48" x="2954.91"/><use href="#DejaVuSans-4b" x="3048.22"/><use href="#DejaVuSans-48" x="3111.59"/><use href="#DejaVuSans-4f" x="3173.12"/><use href="#DejaVuSans-4c" x="3200.91"/><use href="#DejaVuSans-46" x="3228.69"/><use href="#DejaVuSans-52" x="3283.67"/><use href="#DejaVuSans-53" x="3344.86"/><use href="#DejaVuSans-57" x="3408.34"/><use href="#DejaVuSans-48" x="3447.55"/><use href="#DejaVuSans-55" x="3509.08"/><use href="#DejaVuSans-52" x="3581.97"/><use href="#DejaVuSans-59" x="3643.16"/><use href="#DejaVuSans-48" x="3702.34"/><use href="#DejaVuSans-55" x="3763.88"/><use href="#DejaVuSans-4b" x="3803.23"/><use href="#DejaVuSans-48" x="3866.61"/><use href="#DejaVuSans-44" x="3928.14"/><use href="#DejaVuSans-47" x="3989.42"/><use href="#DejaVuSans-44" x="4084.69"/><use href="#DejaVuSans-57" x="4145.97"/><use href="#DejaVuSans-17" x="4216.95"/><use href="#DejaVuSans-18" x="4280.58"/><use href="#DejaVuSans-72" x="4344.2"/><use href="#DejaVuSans-b" x="4425.98"/><use href="#DejaVuSans-cd2" x="4465"/><use href="#DejaVuSans-15" x="4580.58"/><use href="#DejaVuSans-14" x="4644.2"/><use href="#DejaVuSans-15" x="4707.83"/><use href="#DejaVuSans-50" x="4803.23"/><use href="#DejaVuSans-c" x="4900.64"/></g></svg>