<svg xmlns="http://www.w3.org/2000/svg" width="900" height="510" viewBox="0 0 900 510"><rect width="900" height="510" fill="#ffffff"/><text x="450.0" y="30" font-family="Segoe UI, Helvetica, Arial, sans-serif" font-size="26" font-weight="600" fill="#1a1a1a" text-anchor="middle">Barrier diffraction over ground: the Fresnel number at work</text><line x1="40.0" y1="340.0" x2="860.0" y2="340.0" stroke="#1a1a1a" stroke-width="2.2" stroke-linecap="round"/><line x1="40.0" y1="340.0" x2="32.0" y2="349.0" stroke="#666666" stroke-width="1.1" stroke-linecap="round"/><line x1="64.0" y1="340.0" x2="56.0" y2="349.0" stroke="#666666" stroke-width="1.1" stroke-linecap="round"/><line x1="88.0" y1="340.0" x2="80.0" y2="349.0" stroke="#666666" stroke-width="1.1" stroke-linecap="round"/><line x1="112.0" y1="340.0" x2="104.0" y2="349.0" stroke="#666666" stroke-width="1.1" stroke-linecap="round"/><line x1="136.0" y1="340.0" x2="128.0" y2="349.0" stroke="#666666" stroke-width="1.1" stroke-linecap="round"/><line x1="160.0" y1="340.0" x2="152.0" y2="349.0" stroke="#666666" stroke-width="1.1" stroke-linecap="round"/><line x1="184.0" y1="340.0" x2="176.0" y2="349.0" stroke="#666666" stroke-width="1.1" stroke-linecap="round"/><line x1="208.0" y1="340.0" x2="200.0" y2="349.0" stroke="#666666" stroke-width="1.1" stroke-linecap="round"/><line x1="232.0" y1="340.0" x2="224.0" y2="349.0" stroke="#666666" stroke-width="1.1" stroke-linecap="round"/><line x1="256.0" y1="340.0" x2="248.0" y2="349.0" stroke="#666666" stroke-width="1.1" stroke-linecap="round"/><line x1="280.0" y1="340.0" x2="272.0" y2="349.0" stroke="#666666" stroke-width="1.1" stroke-linecap="round"/><line x1="304.0" y1="340.0" x2="296.0" y2="349.0" stroke="#666666" stroke-width="1.1" stroke-linecap="round"/><line x1="328.0" y1="340.0" x2="320.0" y2="349.0" stroke="#666666" stroke-width="1.1" stroke-linecap="round"/><line x1="352.0" y1="340.0" x2="344.0" y2="349.0" stroke="#666666" stroke-width="1.1" stroke-linecap="round"/><line x1="376.0" y1="340.0" x2="368.0" y2="349.0" stroke="#666666" stroke-width="1.1" stroke-linecap="round"/><line x1="400.0" y1="340.0" x2="392.0" y2="349.0" stroke="#666666" stroke-width="1.1" stroke-linecap="round"/><line x1="424.0" y1="340.0" x2="416.0" y2="349.0" stroke="#666666" stroke-width="1.1" stroke-linecap="round"/><line x1="448.0" y1="340.0" x2="440.0" y2="349.0" stroke="#666666" stroke-width="1.1" stroke-linecap="round"/><line x1="472.0" y1="340.0" x2="464.0" y2="349.0" stroke="#666666" stroke-width="1.1" stroke-linecap="round"/><line x1="496.0" y1="340.0" x2="488.0" y2="349.0" stroke="#666666" stroke-width="1.1" stroke-linecap="round"/><line x1="520.0" y1="340.0" x2="512.0" y2="349.0" stroke="#666666" stroke-width="1.1" stroke-linecap="round"/><line x1="544.0" y1="340.0" x2="536.0" y2="349.0" stroke="#666666" stroke-width="1.1" stroke-linecap="round"/><line x1="568.0" y1="340.0" x2="560.0" y2="349.0" stroke="#666666" stroke-width="1.1" stroke-linecap="round"/><line x1="592.0" y1="340.0" x2="584.0" y2="349.0" stroke="#666666" stroke-width="1.1" stroke-linecap="round"/><line x1="616.0" y1="340.0" x2="608.0" y2="349.0" stroke="#666666" stroke-width="1.1" stroke-linecap="round"/><line x1="640.0" y1="340.0" x2="632.0" y2="349.0" stroke="#666666" stroke-width="1.1" stroke-linecap="round"/><line x1="664.0" y1="340.0" x2="656.0" y2="349.0" stroke="#666666" stroke-width="1.1" stroke-linecap="round"/><line x1="688.0" y1="340.0" x2="680.0" y2="349.0" stroke="#666666" stroke-width="1.1" stroke-linecap="round"/><line x1="712.0" y1="340.0" x2="704.0" y2="349.0" stroke="#666666" stroke-width="1.1" stroke-linecap="round"/><line x1="736.0" y1="340.0" x2="728.0" y2="349.0" stroke="#666666" stroke-width="1.1" stroke-linecap="round"/><line x1="760.0" y1="340.0" x2="752.0" y2="349.0" stroke="#666666" stroke-width="1.1" stroke-linecap="round"/><line x1="784.0" y1="340.0" x2="776.0" y2="349.0" stroke="#666666" stroke-width="1.1" stroke-linecap="round"/><line x1="808.0" y1="340.0" x2="800.0" y2="349.0" stroke="#666666" stroke-width="1.1" stroke-linecap="round"/><line x1="832.0" y1="340.0" x2="824.0" y2="349.0" stroke="#666666" stroke-width="1.1" stroke-linecap="round"/><line x1="856.0" y1="340.0" x2="848.0" y2="349.0" stroke="#666666" stroke-width="1.1" stroke-linecap="round"/><path d="M 114.8 258.0 A 22 22 0 0 1 132.0 275.2" fill="none" stroke="#666666" stroke-width="1.2" stroke-linejoin="round"/><path d="M 118.4 242.0 A 38 38 0 0 1 148.0 271.6" fill="none" stroke="#666666" stroke-width="1.2" stroke-linejoin="round"/><path d="M 121.9 226.0 A 54 54 0 0 1 164.0 268.1" fill="none" stroke="#666666" stroke-width="1.2" stroke-linejoin="round"/><rect x="93.0" y="260.0" width="34" height="40" rx="5" fill="#f0f2f5" stroke="#1a1a1a" stroke-width="2"/><circle cx="110.0" cy="275.0" r="8" fill="#1a1a1a" stroke="none" stroke-width="1.5"/><circle cx="110.0" cy="275.0" r="3" fill="#ffffff" stroke="none" stroke-width="1.5"/><circle cx="110.0" cy="292.0" r="5" fill="#1a1a1a" stroke="none" stroke-width="1.5"/><line x1="110.0" y1="300.0" x2="110.0" y2="340.0" stroke="#1a1a1a" stroke-width="2.0" stroke-linecap="round"/><text x="110.0" y="214.0" font-family="Segoe UI, Helvetica, Arial, sans-serif" font-size="19" fill="#1a1a1a" text-anchor="middle" font-weight="600">Source</text><rect x="452.0" y="100.0" width="16" height="240.0" rx="0.0" fill="#d62728" stroke="#1a1a1a" stroke-width="2"/><text x="478.0" y="174.0" font-family="Segoe UI, Helvetica, Arial, sans-serif" font-size="19" fill="#d62728" text-anchor="start" font-weight="600">Barrier</text><rect x="806.0" y="250.0" width="8.0" height="12.0" rx="2.5" fill="#1a1a1a" stroke="none" stroke-width="1.5"/><rect x="804.0" y="262.0" width="12.0" height="34.0" rx="4.0" fill="#1f77b4" stroke="none" stroke-width="1.5"/><line x1="810.0" y1="296.0" x2="810.0" y2="340.0" stroke="#1a1a1a" stroke-width="2.2" stroke-linecap="round"/><line x1="794.0" y1="340.0" x2="826.0" y2="340.0" stroke="#1a1a1a" stroke-width="2.2" stroke-linecap="round"/><text x="810.0" y="230.0" font-family="Segoe UI, Helvetica, Arial, sans-serif" font-size="19" fill="#1a1a1a" text-anchor="middle" font-weight="600">Receiver</text><line x1="122.0" y1="276.0" x2="806.0" y2="254.0" stroke="#666666" stroke-width="1.6" stroke-dasharray="7,6" stroke-linecap="round"/><text x="268" y="308" font-family="Segoe UI, Helvetica, Arial, sans-serif" font-size="15" fill="#666666" text-anchor="middle" font-style="italic">direct d = 100.00 m (blocked)</text><line x1="120.0" y1="270.0" x2="460.0" y2="100.0" stroke="#2ca02c" stroke-width="2.6" stroke-linecap="round"/><line x1="460.0" y1="100.0" x2="797.725222722534" y2="244.46049989287582" stroke="#2ca02c" stroke-width="2.6" stroke-linecap="round"/><path d="M 806.0 248.0 L 796.3 247.8 L 799.1 241.2 Z" fill="#2ca02c" stroke="none" stroke-width="1.5" stroke-linejoin="round"/><circle cx="460.0" cy="100.0" r="5.5" fill="#ffffff" stroke="#1a1a1a" stroke-width="2.0"/><text x="258" y="162" font-family="Segoe UI, Helvetica, Arial, sans-serif" font-size="17" fill="#2ca02c" text-anchor="middle" font-weight="600">A = 50.09 m</text><text x="660" y="152" font-family="Segoe UI, Helvetica, Arial, sans-serif" font-size="17" fill="#2ca02c" text-anchor="middle" font-weight="600">B = 50.06 m</text><line x1="64" y1="304.0" x2="64.0" y2="331.0" stroke="#666666" stroke-width="1.2" stroke-linecap="round"/><path d="M 64.0 340.0 L 60.4 331.0 L 67.6 331.0 Z" fill="#666666" stroke="none" stroke-width="1.5" stroke-linejoin="round"/><line x1="64" y1="312.0" x2="64.0" y2="285.0" stroke="#666666" stroke-width="1.2" stroke-linecap="round"/><path d="M 64.0 276.0 L 67.6 285.0 L 60.4 285.0 Z" fill="#666666" stroke="none" stroke-width="1.5" stroke-linejoin="round"/><text x="55" y="314.0" font-family="Segoe UI, Helvetica, Arial, sans-serif" font-size="15" fill="#1a1a1a" text-anchor="end">1.0 m</text><line x1="64" y1="276.0" x2="93.0" y2="276.0" stroke="#666666" stroke-width="0.9" stroke-dasharray="3,3" stroke-linecap="round"/><line x1="430" y1="216.0" x2="430.0" y2="331.0" stroke="#666666" stroke-width="1.2" stroke-linecap="round"/><path d="M 430.0 340.0 L 426.4 331.0 L 433.6 331.0 Z" fill="#666666" stroke="none" stroke-width="1.5" stroke-linejoin="round"/><line x1="430" y1="224.0" x2="430.0" y2="109.0" stroke="#666666" stroke-width="1.2" stroke-linecap="round"/><path d="M 430.0 100.0 L 433.6 109.0 L 426.4 109.0 Z" fill="#666666" stroke="none" stroke-width="1.5" stroke-linejoin="round"/><text x="421" y="226.0" font-family="Segoe UI, Helvetica, Arial, sans-serif" font-size="15" fill="#1a1a1a" text-anchor="end">4.0 m</text><line x1="430" y1="100.0" x2="452.0" y2="100.0" stroke="#666666" stroke-width="0.9" stroke-dasharray="3,3" stroke-linecap="round"/><line x1="846" y1="291.0" x2="846.0" y2="331.0" stroke="#666666" stroke-width="1.2" stroke-linecap="round"/><path d="M 846.0 340.0 L 842.4 331.0 L 849.6 331.0 Z" fill="#666666" stroke="none" stroke-width="1.5" stroke-linejoin="round"/><line x1="846" y1="299.0" x2="846.0" y2="259.0" stroke="#666666" stroke-width="1.2" stroke-linecap="round"/><path d="M 846.0 250.0 L 849.6 259.0 L 842.4 259.0 Z" fill="#666666" stroke="none" stroke-width="1.5" stroke-linejoin="round"/><text x="855" y="301.0" font-family="Segoe UI, Helvetica, Arial, sans-serif" font-size="14" fill="#1a1a1a" text-anchor="start">1.5 m</text><line x1="816.0" y1="250.0" x2="846" y2="250.0" stroke="#666666" stroke-width="0.9" stroke-dasharray="3,3" stroke-linecap="round"/><line x1="110.0" y1="340.0" x2="110.0" y2="374.0" stroke="#666666" stroke-width="0.9" stroke-dasharray="3,3" stroke-linecap="round"/><line x1="460.0" y1="340.0" x2="460.0" y2="374.0" stroke="#666666" stroke-width="0.9" stroke-dasharray="3,3" stroke-linecap="round"/><line x1="281.0" y1="374.0" x2="119.0" y2="374.0" stroke="#666666" stroke-width="1.2" stroke-linecap="round"/><path d="M 110.0 374.0 L 119.0 370.4 L 119.0 377.6 Z" fill="#666666" stroke="none" stroke-width="1.5" stroke-linejoin="round"/><line x1="289.0" y1="374.0" x2="451.0" y2="374.0" stroke="#666666" stroke-width="1.2" stroke-linecap="round"/><path d="M 460.0 374.0 L 451.0 377.6 L 451.0 370.4 Z" fill="#666666" stroke="none" stroke-width="1.5" stroke-linejoin="round"/><text x="285.0" y="367.0" font-family="Segoe UI, Helvetica, Arial, sans-serif" font-size="16" fill="#1a1a1a" text-anchor="middle">50 m</text><line x1="460.0" y1="340.0" x2="460.0" y2="374.0" stroke="#666666" stroke-width="0.9" stroke-dasharray="3,3" stroke-linecap="round"/><line x1="810.0" y1="340.0" x2="810.0" y2="374.0" stroke="#666666" stroke-width="0.9" stroke-dasharray="3,3" stroke-linecap="round"/><line x1="631.0" y1="374.0" x2="469.0" y2="374.0" stroke="#666666" stroke-width="1.2" stroke-linecap="round"/><path d="M 460.0 374.0 L 469.0 370.4 L 469.0 377.6 Z" fill="#666666" stroke="none" stroke-width="1.5" stroke-linejoin="round"/><line x1="639.0" y1="374.0" x2="801.0" y2="374.0" stroke="#666666" stroke-width="1.2" stroke-linecap="round"/><path d="M 810.0 374.0 L 801.0 377.6 L 801.0 370.4 Z" fill="#666666" stroke="none" stroke-width="1.5" stroke-linejoin="round"/><text x="635.0" y="367.0" font-family="Segoe UI, Helvetica, Arial, sans-serif" font-size="16" fill="#1a1a1a" text-anchor="middle">50 m</text><text x="80" y="420" font-family="Segoe UI, Helvetica, Arial, sans-serif" font-size="18" fill="#1a1a1a" text-anchor="start">path difference δ = A + B − d = 0.15 m; Fresnel number N = 2δ/λ = 0.44 at 500 Hz</text><text x="80" y="448" font-family="Segoe UI, Helvetica, Arial, sans-serif" font-size="18" fill="#1f77b4" text-anchor="start" font-weight="600">Kurze–Anderson: Δbar = 5 + 20 log10( √(2πN) / tanh √(2πN) ) = 10.0 dB at 500 Hz</text><text x="80" y="476" font-family="Segoe UI, Helvetica, Arial, sans-serif" font-size="17" fill="#666666" text-anchor="start">N grows with frequency: the same screen gives 15.5 dB at 2 kHz (vertical scale exaggerated)</text></svg>