<?xml version="1.0" encoding="utf-8" standalone="no"?>
<!DOCTYPE svg PUBLIC "-//W3C//DTD SVG 1.1//EN"
  "http://www.w3.org/Graphics/SVG/1.1/DTD/svg11.dtd">
<svg xmlns:xlink="http://www.w3.org/1999/xlink" width="609.303125pt" height="400.040469pt" viewBox="0 0 609.303125 400.040469" xmlns="http://www.w3.org/2000/svg" version="1.1">
 <metadata>
  <rdf:RDF xmlns:dc="http://purl.org/dc/elements/1.1/" xmlns:cc="http://creativecommons.org/ns#" xmlns:rdf="http://www.w3.org/1999/02/22-rdf-syntax-ns#">
   <cc:Work>
    <dc:type rdf:resource="http://purl.org/dc/dcmitype/StillImage"/>
    <dc:format>image/svg+xml</dc:format>
    <dc:creator>
     <cc:Agent>
      <dc:title>Matplotlib v3.11.1, https://matplotlib.org/</dc:title>
     </cc:Agent>
    </dc:creator>
   </cc:Work>
  </rdf:RDF>
 </metadata>
 <defs>
  <style type="text/css">*{stroke-linejoin: round; stroke-linecap: butt}</style>
 </defs>
 <g id="figure_1">
  <g id="patch_1">
   <path d="M -0 400.040469 
L 609.303125 400.040469 
L 609.303125 0 
L -0 0 
z
"/>
  </g>
  <g id="axes_1">
   <g id="patch_2">
    <path d="M 44.103125 361.438125 
L 602.103125 361.438125 
L 602.103125 28.798125 
L 44.103125 28.798125 
z
"/>
   </g>
   <g id="patch_3">
    <path d="M 44.103125 361.438125 
L 602.103125 361.438125 
L 602.103125 274.120125 
L 44.103125 274.120125 
z
" clip-path="url(#pe2102e52f6)" style="fill: #1c0006"/>
   </g>
   <g id="patch_4">
    <path d="M 44.103125 274.120125 
L 602.103125 274.120125 
L 602.103125 257.488125 
L 44.103125 257.488125 
z
" clip-path="url(#pe2102e52f6)" style="fill: #200706"/>
   </g>
   <g id="patch_5">
    <path d="M 44.103125 257.488125 
L 602.103125 257.488125 
L 602.103125 240.856125 
L 44.103125 240.856125 
z
" clip-path="url(#pe2102e52f6)" style="fill: #230e09"/>
   </g>
   <g id="patch_6">
    <path d="M 44.103125 240.856125 
L 602.103125 240.856125 
L 602.103125 224.224125 
L 44.103125 224.224125 
z
" clip-path="url(#pe2102e52f6)" style="fill: #29190e"/>
   </g>
   <g id="patch_7">
    <path d="M 44.103125 224.224125 
L 602.103125 224.224125 
L 602.103125 207.592125 
L 44.103125 207.592125 
z
" clip-path="url(#pe2102e52f6)" style="fill: #2a2215"/>
   </g>
   <g id="patch_8">
    <path d="M 44.103125 207.592125 
L 602.103125 207.592125 
L 602.103125 190.960125 
L 44.103125 190.960125 
z
" clip-path="url(#pe2102e52f6)" style="fill: #2a281b"/>
   </g>
   <g id="patch_9">
    <path d="M 44.103125 190.960125 
L 602.103125 190.960125 
L 602.103125 174.328125 
L 44.103125 174.328125 
z
" clip-path="url(#pe2102e52f6)" style="fill: #25271a"/>
   </g>
   <g id="patch_10">
    <path d="M 44.103125 174.328125 
L 602.103125 174.328125 
L 602.103125 157.696125 
L 44.103125 157.696125 
z
" clip-path="url(#pe2102e52f6)" style="fill: #1d2112"/>
   </g>
   <g id="patch_11">
    <path d="M 44.103125 157.696125 
L 602.103125 157.696125 
L 602.103125 141.064125 
L 44.103125 141.064125 
z
" clip-path="url(#pe2102e52f6)" style="fill: #151d0f"/>
   </g>
   <g id="patch_12">
    <path d="M 44.103125 141.064125 
L 602.103125 141.064125 
L 602.103125 124.432125 
L 44.103125 124.432125 
z
" clip-path="url(#pe2102e52f6)" style="fill: #0d1b0e"/>
   </g>
   <g id="patch_13">
    <path d="M 44.103125 124.432125 
L 602.103125 124.432125 
L 602.103125 107.800125 
L 44.103125 107.800125 
z
" clip-path="url(#pe2102e52f6)" style="fill: #04190d"/>
   </g>
   <g id="patch_14">
    <path d="M 44.103125 107.800125 
L 602.103125 107.800125 
L 602.103125 28.798125 
L 44.103125 28.798125 
z
" clip-path="url(#pe2102e52f6)" style="fill: #00180d"/>
   </g>
   <g id="matplotlib.axis_1">
    <g id="xtick_1">
     <g id="line2d_1">
      <path d="M 76.11499 361.438125 
L 76.11499 28.798125 
" clip-path="url(#pe2102e52f6)" style="fill: none; stroke-dasharray: 2.96,1.28; stroke-dashoffset: 0; stroke: #ffffff; stroke-opacity: 0.5; stroke-width: 0.8"/>
     </g>
     <g id="line2d_2">
      <defs>
       <path id="m8d14ee1197" d="M 0 0 
L 0 3.5 
" style="stroke: #ffffff; stroke-width: 0.8"/>
      </defs>
      <g>
       <use xlink:href="#m8d14ee1197" x="76.11499" y="361.438125" style="fill: #ffffff; stroke: #ffffff; stroke-width: 0.8"/>
      </g>
     </g>
     <g id="text_1">
      <!-- 0,3 -->
      <g style="fill: #ffffff" transform="translate(68.163427 376.035781) scale(0.1 -0.1)">
       <defs>
        <path id="DejaVuSans-13" d="M 2034 4250 
Q 1547 4250 1301 3770 
Q 1056 3291 1056 2328 
Q 1056 1369 1301 889 
Q 1547 409 2034 409 
Q 2525 409 2770 889 
Q 3016 1369 3016 2328 
Q 3016 3291 2770 3770 
Q 2525 4250 2034 4250 
z
M 2034 4750 
Q 2819 4750 3233 4129 
Q 3647 3509 3647 2328 
Q 3647 1150 3233 529 
Q 2819 -91 2034 -91 
Q 1250 -91 836 529 
Q 422 1150 422 2328 
Q 422 3509 836 4129 
Q 1250 4750 2034 4750 
z
" transform="scale(0.015625)"/>
        <path id="DejaVuSans-f" d="M 750 794 
L 1409 794 
L 1409 256 
L 897 -744 
L 494 -744 
L 750 256 
L 750 794 
z
" transform="scale(0.015625)"/>
        <path id="DejaVuSans-16" d="M 2597 2516 
Q 3050 2419 3304 2112 
Q 3559 1806 3559 1356 
Q 3559 666 3084 287 
Q 2609 -91 1734 -91 
Q 1441 -91 1130 -33 
Q 819 25 488 141 
L 488 750 
Q 750 597 1062 519 
Q 1375 441 1716 441 
Q 2309 441 2620 675 
Q 2931 909 2931 1356 
Q 2931 1769 2642 2001 
Q 2353 2234 1838 2234 
L 1294 2234 
L 1294 2753 
L 1863 2753 
Q 2328 2753 2575 2939 
Q 2822 3125 2822 3475 
Q 2822 3834 2567 4026 
Q 2313 4219 1838 4219 
Q 1578 4219 1281 4162 
Q 984 4106 628 3988 
L 628 4550 
Q 988 4650 1302 4700 
Q 1616 4750 1894 4750 
Q 2613 4750 3031 4423 
Q 3450 4097 3450 3541 
Q 3450 3153 3228 2886 
Q 3006 2619 2597 2516 
z
" transform="scale(0.015625)"/>
       </defs>
       <use xlink:href="#DejaVuSans-13"/>
       <use xlink:href="#DejaVuSans-f" transform="translate(63.625 0)"/>
       <use xlink:href="#DejaVuSans-16" transform="translate(95.40625 0)"/>
      </g>
     </g>
    </g>
    <g id="xtick_2">
     <g id="line2d_3">
      <path d="M 165.80532 361.438125 
L 165.80532 28.798125 
" clip-path="url(#pe2102e52f6)" style="fill: none; stroke-dasharray: 2.96,1.28; stroke-dashoffset: 0; stroke: #ffffff; stroke-opacity: 0.5; stroke-width: 0.8"/>
     </g>
     <g id="line2d_4">
      <g>
       <use xlink:href="#m8d14ee1197" x="165.80532" y="361.438125" style="fill: #ffffff; stroke: #ffffff; stroke-width: 0.8"/>
      </g>
     </g>
     <g id="text_2">
      <!-- 0,5 -->
      <g style="fill: #ffffff" transform="translate(157.853757 376.035781) scale(0.1 -0.1)">
       <defs>
        <path id="DejaVuSans-18" d="M 691 4666 
L 3169 4666 
L 3169 4134 
L 1269 4134 
L 1269 2991 
Q 1406 3038 1543 3061 
Q 1681 3084 1819 3084 
Q 2600 3084 3056 2656 
Q 3513 2228 3513 1497 
Q 3513 744 3044 326 
Q 2575 -91 1722 -91 
Q 1428 -91 1123 -41 
Q 819 9 494 109 
L 494 744 
Q 775 591 1075 516 
Q 1375 441 1709 441 
Q 2250 441 2565 725 
Q 2881 1009 2881 1497 
Q 2881 1984 2565 2268 
Q 2250 2553 1709 2553 
Q 1456 2553 1204 2497 
Q 953 2441 691 2322 
L 691 4666 
z
" transform="scale(0.015625)"/>
       </defs>
       <use xlink:href="#DejaVuSans-13"/>
       <use xlink:href="#DejaVuSans-f" transform="translate(63.625 0)"/>
       <use xlink:href="#DejaVuSans-18" transform="translate(95.40625 0)"/>
      </g>
     </g>
    </g>
    <g id="xtick_3">
     <g id="line2d_5">
      <path d="M 248.328159 361.438125 
L 248.328159 28.798125 
" clip-path="url(#pe2102e52f6)" style="fill: none; stroke-dasharray: 2.96,1.28; stroke-dashoffset: 0; stroke: #ffffff; stroke-opacity: 0.5; stroke-width: 0.8"/>
     </g>
     <g id="line2d_6">
      <g>
       <use xlink:href="#m8d14ee1197" x="248.328159" y="361.438125" style="fill: #ffffff; stroke: #ffffff; stroke-width: 0.8"/>
      </g>
     </g>
     <g id="text_3">
      <!-- 0,8 -->
      <g style="fill: #ffffff" transform="translate(240.376597 376.035781) scale(0.1 -0.1)">
       <defs>
        <path id="DejaVuSans-1b" d="M 2034 2216 
Q 1584 2216 1326 1975 
Q 1069 1734 1069 1313 
Q 1069 891 1326 650 
Q 1584 409 2034 409 
Q 2484 409 2743 651 
Q 3003 894 3003 1313 
Q 3003 1734 2745 1975 
Q 2488 2216 2034 2216 
z
M 1403 2484 
Q 997 2584 770 2862 
Q 544 3141 544 3541 
Q 544 4100 942 4425 
Q 1341 4750 2034 4750 
Q 2731 4750 3128 4425 
Q 3525 4100 3525 3541 
Q 3525 3141 3298 2862 
Q 3072 2584 2669 2484 
Q 3125 2378 3379 2068 
Q 3634 1759 3634 1313 
Q 3634 634 3220 271 
Q 2806 -91 2034 -91 
Q 1263 -91 848 271 
Q 434 634 434 1313 
Q 434 1759 690 2068 
Q 947 2378 1403 2484 
z
M 1172 3481 
Q 1172 3119 1398 2916 
Q 1625 2713 2034 2713 
Q 2441 2713 2670 2916 
Q 2900 3119 2900 3481 
Q 2900 3844 2670 4047 
Q 2441 4250 2034 4250 
Q 1625 4250 1398 4047 
Q 1172 3844 1172 3481 
z
" transform="scale(0.015625)"/>
       </defs>
       <use xlink:href="#DejaVuSans-13"/>
       <use xlink:href="#DejaVuSans-f" transform="translate(63.625 0)"/>
       <use xlink:href="#DejaVuSans-1b" transform="translate(95.40625 0)"/>
      </g>
     </g>
    </g>
    <g id="xtick_4">
     <g id="line2d_7">
      <path d="M 319.519379 361.438125 
L 319.519379 28.798125 
" clip-path="url(#pe2102e52f6)" style="fill: none; stroke-dasharray: 2.96,1.28; stroke-dashoffset: 0; stroke: #ffffff; stroke-opacity: 0.5; stroke-width: 0.8"/>
     </g>
     <g id="line2d_8">
      <g>
       <use xlink:href="#m8d14ee1197" x="319.519379" y="361.438125" style="fill: #ffffff; stroke: #ffffff; stroke-width: 0.8"/>
      </g>
     </g>
     <g id="text_4">
      <!-- 1,2 -->
      <g style="fill: #ffffff" transform="translate(311.567817 376.035781) scale(0.1 -0.1)">
       <defs>
        <path id="DejaVuSans-14" d="M 794 531 
L 1825 531 
L 1825 4091 
L 703 3866 
L 703 4441 
L 1819 4666 
L 2450 4666 
L 2450 531 
L 3481 531 
L 3481 0 
L 794 0 
L 794 531 
z
" transform="scale(0.015625)"/>
        <path id="DejaVuSans-15" d="M 1228 531 
L 3431 531 
L 3431 0 
L 469 0 
L 469 531 
Q 828 903 1448 1529 
Q 2069 2156 2228 2338 
Q 2531 2678 2651 2914 
Q 2772 3150 2772 3378 
Q 2772 3750 2511 3984 
Q 2250 4219 1831 4219 
Q 1534 4219 1204 4116 
Q 875 4013 500 3803 
L 500 4441 
Q 881 4594 1212 4672 
Q 1544 4750 1819 4750 
Q 2544 4750 2975 4387 
Q 3406 4025 3406 3419 
Q 3406 3131 3298 2873 
Q 3191 2616 2906 2266 
Q 2828 2175 2409 1742 
Q 1991 1309 1228 531 
z
" transform="scale(0.015625)"/>
       </defs>
       <use xlink:href="#DejaVuSans-14"/>
       <use xlink:href="#DejaVuSans-f" transform="translate(63.625 0)"/>
       <use xlink:href="#DejaVuSans-15" transform="translate(95.40625 0)"/>
      </g>
     </g>
    </g>
    <g id="xtick_5">
     <g id="line2d_9">
      <path d="M 409.20971 361.438125 
L 409.20971 28.798125 
" clip-path="url(#pe2102e52f6)" style="fill: none; stroke-dasharray: 2.96,1.28; stroke-dashoffset: 0; stroke: #ffffff; stroke-opacity: 0.5; stroke-width: 0.8"/>
     </g>
     <g id="line2d_10">
      <g>
       <use xlink:href="#m8d14ee1197" x="409.20971" y="361.438125" style="fill: #ffffff; stroke: #ffffff; stroke-width: 0.8"/>
      </g>
     </g>
     <g id="text_5">
      <!-- 2 -->
      <g style="fill: #ffffff" transform="translate(406.02846 376.035781) scale(0.1 -0.1)">
       <use xlink:href="#DejaVuSans-15"/>
      </g>
     </g>
    </g>
    <g id="xtick_6">
     <g id="line2d_11">
      <path d="M 480.40093 361.438125 
L 480.40093 28.798125 
" clip-path="url(#pe2102e52f6)" style="fill: none; stroke-dasharray: 2.96,1.28; stroke-dashoffset: 0; stroke: #ffffff; stroke-opacity: 0.5; stroke-width: 0.8"/>
     </g>
     <g id="line2d_12">
      <g>
       <use xlink:href="#m8d14ee1197" x="480.40093" y="361.438125" style="fill: #ffffff; stroke: #ffffff; stroke-width: 0.8"/>
      </g>
     </g>
     <g id="text_6">
      <!-- 3 -->
      <g style="fill: #ffffff" transform="translate(477.21968 376.035781) scale(0.1 -0.1)">
       <use xlink:href="#DejaVuSans-16"/>
      </g>
     </g>
    </g>
    <g id="xtick_7">
     <g id="line2d_13">
      <path d="M 570.09126 361.438125 
L 570.09126 28.798125 
" clip-path="url(#pe2102e52f6)" style="fill: none; stroke-dasharray: 2.96,1.28; stroke-dashoffset: 0; stroke: #ffffff; stroke-opacity: 0.5; stroke-width: 0.8"/>
     </g>
     <g id="line2d_14">
      <g>
       <use xlink:href="#m8d14ee1197" x="570.09126" y="361.438125" style="fill: #ffffff; stroke: #ffffff; stroke-width: 0.8"/>
      </g>
     </g>
     <g id="text_7">
      <!-- 5 -->
      <g style="fill: #ffffff" transform="translate(566.91001 376.035781) scale(0.1 -0.1)">
       <use xlink:href="#DejaVuSans-18"/>
      </g>
     </g>
    </g>
    <g id="xtick_8">
     <g id="line2d_15">
      <defs>
       <path id="m1caa325441" d="M 0 0 
L 0 2 
" style="stroke: #ffffff; stroke-width: 0.6"/>
      </defs>
      <g>
       <use xlink:href="#m1caa325441" x="126.625964" y="361.438125" style="fill: #ffffff; stroke: #ffffff; stroke-width: 0.6"/>
      </g>
     </g>
    </g>
    <g id="xtick_9">
     <g id="line2d_16">
      <g>
       <use xlink:href="#m1caa325441" x="197.817184" y="361.438125" style="fill: #ffffff; stroke: #ffffff; stroke-width: 0.6"/>
      </g>
     </g>
    </g>
    <g id="xtick_10">
     <g id="line2d_17">
      <g>
       <use xlink:href="#m1caa325441" x="224.88283" y="361.438125" style="fill: #ffffff; stroke: #ffffff; stroke-width: 0.6"/>
      </g>
     </g>
    </g>
    <g id="xtick_11">
     <g id="line2d_18">
      <g>
       <use xlink:href="#m1caa325441" x="269.008405" y="361.438125" style="fill: #ffffff; stroke: #ffffff; stroke-width: 0.6"/>
      </g>
     </g>
    </g>
    <g id="xtick_12">
     <g id="line2d_19">
      <g>
       <use xlink:href="#m1caa325441" x="530.911905" y="361.438125" style="fill: #ffffff; stroke: #ffffff; stroke-width: 0.6"/>
      </g>
     </g>
    </g>
    <g id="xtick_13">
     <g id="line2d_20">
      <g>
       <use xlink:href="#m1caa325441" x="602.103125" y="361.438125" style="fill: #ffffff; stroke: #ffffff; stroke-width: 0.6"/>
      </g>
     </g>
    </g>
    <g id="text_8">
     <!-- Tiempo de reverberación $T_{60}$ [s] -->
     <g style="fill: #ffffff" transform="translate(243.003125 390.438125) scale(0.1 -0.1)">
      <defs>
       <path id="DejaVuSans-37" d="M -19 4666 
L 3928 4666 
L 3928 4134 
L 2272 4134 
L 2272 0 
L 1638 0 
L 1638 4134 
L -19 4134 
L -19 4666 
z
" transform="scale(0.015625)"/>
       <path id="DejaVuSans-4c" d="M 603 3500 
L 1178 3500 
L 1178 0 
L 603 0 
L 603 3500 
z
M 603 4863 
L 1178 4863 
L 1178 4134 
L 603 4134 
L 603 4863 
z
" transform="scale(0.015625)"/>
       <path id="DejaVuSans-48" d="M 3597 1894 
L 3597 1613 
L 953 1613 
Q 991 1019 1311 708 
Q 1631 397 2203 397 
Q 2534 397 2845 478 
Q 3156 559 3463 722 
L 3463 178 
Q 3153 47 2828 -22 
Q 2503 -91 2169 -91 
Q 1331 -91 842 396 
Q 353 884 353 1716 
Q 353 2575 817 3079 
Q 1281 3584 2069 3584 
Q 2775 3584 3186 3129 
Q 3597 2675 3597 1894 
z
M 3022 2063 
Q 3016 2534 2758 2815 
Q 2500 3097 2075 3097 
Q 1594 3097 1305 2825 
Q 1016 2553 972 2059 
L 3022 2063 
z
" transform="scale(0.015625)"/>
       <path id="DejaVuSans-50" d="M 3328 2828 
Q 3544 3216 3844 3400 
Q 4144 3584 4550 3584 
Q 5097 3584 5394 3201 
Q 5691 2819 5691 2113 
L 5691 0 
L 5113 0 
L 5113 2094 
Q 5113 2597 4934 2840 
Q 4756 3084 4391 3084 
Q 3944 3084 3684 2787 
Q 3425 2491 3425 1978 
L 3425 0 
L 2847 0 
L 2847 2094 
Q 2847 2600 2669 2842 
Q 2491 3084 2119 3084 
Q 1678 3084 1418 2786 
Q 1159 2488 1159 1978 
L 1159 0 
L 581 0 
L 581 3500 
L 1159 3500 
L 1159 2956 
Q 1356 3278 1631 3431 
Q 1906 3584 2284 3584 
Q 2666 3584 2933 3390 
Q 3200 3197 3328 2828 
z
" transform="scale(0.015625)"/>
       <path id="DejaVuSans-53" d="M 1159 525 
L 1159 -1331 
L 581 -1331 
L 581 3500 
L 1159 3500 
L 1159 2969 
Q 1341 3281 1617 3432 
Q 1894 3584 2278 3584 
Q 2916 3584 3314 3078 
Q 3713 2572 3713 1747 
Q 3713 922 3314 415 
Q 2916 -91 2278 -91 
Q 1894 -91 1617 61 
Q 1341 213 1159 525 
z
M 3116 1747 
Q 3116 2381 2855 2742 
Q 2594 3103 2138 3103 
Q 1681 3103 1420 2742 
Q 1159 2381 1159 1747 
Q 1159 1113 1420 752 
Q 1681 391 2138 391 
Q 2594 391 2855 752 
Q 3116 1113 3116 1747 
z
" transform="scale(0.015625)"/>
       <path id="DejaVuSans-52" d="M 1959 3097 
Q 1497 3097 1228 2736 
Q 959 2375 959 1747 
Q 959 1119 1226 758 
Q 1494 397 1959 397 
Q 2419 397 2687 759 
Q 2956 1122 2956 1747 
Q 2956 2369 2687 2733 
Q 2419 3097 1959 3097 
z
M 1959 3584 
Q 2709 3584 3137 3096 
Q 3566 2609 3566 1747 
Q 3566 888 3137 398 
Q 2709 -91 1959 -91 
Q 1206 -91 779 398 
Q 353 888 353 1747 
Q 353 2609 779 3096 
Q 1206 3584 1959 3584 
z
" transform="scale(0.015625)"/>
       <path id="DejaVuSans-3" transform="scale(0.015625)"/>
       <path id="DejaVuSans-47" d="M 2906 2969 
L 2906 4863 
L 3481 4863 
L 3481 0 
L 2906 0 
L 2906 525 
Q 2725 213 2448 61 
Q 2172 -91 1784 -91 
Q 1150 -91 751 415 
Q 353 922 353 1747 
Q 353 2572 751 3078 
Q 1150 3584 1784 3584 
Q 2172 3584 2448 3432 
Q 2725 3281 2906 2969 
z
M 947 1747 
Q 947 1113 1208 752 
Q 1469 391 1925 391 
Q 2381 391 2643 752 
Q 2906 1113 2906 1747 
Q 2906 2381 2643 2742 
Q 2381 3103 1925 3103 
Q 1469 3103 1208 2742 
Q 947 2381 947 1747 
z
" transform="scale(0.015625)"/>
       <path id="DejaVuSans-55" d="M 2631 2963 
Q 2534 3019 2420 3045 
Q 2306 3072 2169 3072 
Q 1681 3072 1420 2755 
Q 1159 2438 1159 1844 
L 1159 0 
L 581 0 
L 581 3500 
L 1159 3500 
L 1159 2956 
Q 1341 3275 1631 3429 
Q 1922 3584 2338 3584 
Q 2397 3584 2469 3576 
Q 2541 3569 2628 3553 
L 2631 2963 
z
" transform="scale(0.015625)"/>
       <path id="DejaVuSans-59" d="M 191 3500 
L 800 3500 
L 1894 563 
L 2988 3500 
L 3597 3500 
L 2284 0 
L 1503 0 
L 191 3500 
z
" transform="scale(0.015625)"/>
       <path id="DejaVuSans-45" d="M 3116 1747 
Q 3116 2381 2855 2742 
Q 2594 3103 2138 3103 
Q 1681 3103 1420 2742 
Q 1159 2381 1159 1747 
Q 1159 1113 1420 752 
Q 1681 391 2138 391 
Q 2594 391 2855 752 
Q 3116 1113 3116 1747 
z
M 1159 2969 
Q 1341 3281 1617 3432 
Q 1894 3584 2278 3584 
Q 2916 3584 3314 3078 
Q 3713 2572 3713 1747 
Q 3713 922 3314 415 
Q 2916 -91 2278 -91 
Q 1894 -91 1617 61 
Q 1341 213 1159 525 
L 1159 0 
L 581 0 
L 581 4863 
L 1159 4863 
L 1159 2969 
z
" transform="scale(0.015625)"/>
       <path id="DejaVuSans-44" d="M 2194 1759 
Q 1497 1759 1228 1600 
Q 959 1441 959 1056 
Q 959 750 1161 570 
Q 1363 391 1709 391 
Q 2188 391 2477 730 
Q 2766 1069 2766 1631 
L 2766 1759 
L 2194 1759 
z
M 3341 1997 
L 3341 0 
L 2766 0 
L 2766 531 
Q 2569 213 2275 61 
Q 1981 -91 1556 -91 
Q 1019 -91 701 211 
Q 384 513 384 1019 
Q 384 1609 779 1909 
Q 1175 2209 1959 2209 
L 2766 2209 
L 2766 2266 
Q 2766 2663 2505 2880 
Q 2244 3097 1772 3097 
Q 1472 3097 1187 3025 
Q 903 2953 641 2809 
L 641 3341 
Q 956 3463 1253 3523 
Q 1550 3584 1831 3584 
Q 2591 3584 2966 3190 
Q 3341 2797 3341 1997 
z
" transform="scale(0.015625)"/>
       <path id="DejaVuSans-46" d="M 3122 3366 
L 3122 2828 
Q 2878 2963 2633 3030 
Q 2388 3097 2138 3097 
Q 1578 3097 1268 2742 
Q 959 2388 959 1747 
Q 959 1106 1268 751 
Q 1578 397 2138 397 
Q 2388 397 2633 464 
Q 2878 531 3122 666 
L 3122 134 
Q 2881 22 2623 -34 
Q 2366 -91 2075 -91 
Q 1284 -91 818 406 
Q 353 903 353 1747 
Q 353 2603 823 3093 
Q 1294 3584 2113 3584 
Q 2378 3584 2631 3529 
Q 2884 3475 3122 3366 
z
" transform="scale(0.015625)"/>
       <path id="DejaVuSans-b5" d="M 1959 3097 
Q 1497 3097 1228 2736 
Q 959 2375 959 1747 
Q 959 1119 1226 758 
Q 1494 397 1959 397 
Q 2419 397 2687 759 
Q 2956 1122 2956 1747 
Q 2956 2369 2687 2733 
Q 2419 3097 1959 3097 
z
M 1959 3584 
Q 2709 3584 3137 3096 
Q 3566 2609 3566 1747 
Q 3566 888 3137 398 
Q 2709 -91 1959 -91 
Q 1206 -91 779 398 
Q 353 888 353 1747 
Q 353 2609 779 3096 
Q 1206 3584 1959 3584 
z
M 2393 5119 
L 3015 5119 
L 1997 3944 
L 1518 3944 
L 2393 5119 
z
" transform="scale(0.015625)"/>
       <path id="DejaVuSans-51" d="M 3513 2113 
L 3513 0 
L 2938 0 
L 2938 2094 
Q 2938 2591 2744 2837 
Q 2550 3084 2163 3084 
Q 1697 3084 1428 2787 
Q 1159 2491 1159 1978 
L 1159 0 
L 581 0 
L 581 3500 
L 1159 3500 
L 1159 2956 
Q 1366 3272 1645 3428 
Q 1925 3584 2291 3584 
Q 2894 3584 3203 3211 
Q 3513 2838 3513 2113 
z
" transform="scale(0.015625)"/>
       <path id="DejaVuSans-Oblique-37" d="M 378 4666 
L 4325 4666 
L 4225 4134 
L 2559 4134 
L 1759 0 
L 1125 0 
L 1925 4134 
L 275 4134 
L 378 4666 
z
" transform="scale(0.015625)"/>
       <path id="DejaVuSans-19" d="M 2113 2584 
Q 1688 2584 1439 2293 
Q 1191 2003 1191 1497 
Q 1191 994 1439 701 
Q 1688 409 2113 409 
Q 2538 409 2786 701 
Q 3034 994 3034 1497 
Q 3034 2003 2786 2293 
Q 2538 2584 2113 2584 
z
M 3366 4563 
L 3366 3988 
Q 3128 4100 2886 4159 
Q 2644 4219 2406 4219 
Q 1781 4219 1451 3797 
Q 1122 3375 1075 2522 
Q 1259 2794 1537 2939 
Q 1816 3084 2150 3084 
Q 2853 3084 3261 2657 
Q 3669 2231 3669 1497 
Q 3669 778 3244 343 
Q 2819 -91 2113 -91 
Q 1303 -91 875 529 
Q 447 1150 447 2328 
Q 447 3434 972 4092 
Q 1497 4750 2381 4750 
Q 2619 4750 2861 4703 
Q 3103 4656 3366 4563 
z
" transform="scale(0.015625)"/>
       <path id="DejaVuSans-3e" d="M 550 4863 
L 1875 4863 
L 1875 4416 
L 1125 4416 
L 1125 -397 
L 1875 -397 
L 1875 -844 
L 550 -844 
L 550 4863 
z
" transform="scale(0.015625)"/>
       <path id="DejaVuSans-56" d="M 2834 3397 
L 2834 2853 
Q 2591 2978 2328 3040 
Q 2066 3103 1784 3103 
Q 1356 3103 1142 2972 
Q 928 2841 928 2578 
Q 928 2378 1081 2264 
Q 1234 2150 1697 2047 
L 1894 2003 
Q 2506 1872 2764 1633 
Q 3022 1394 3022 966 
Q 3022 478 2636 193 
Q 2250 -91 1575 -91 
Q 1294 -91 989 -36 
Q 684 19 347 128 
L 347 722 
Q 666 556 975 473 
Q 1284 391 1588 391 
Q 1994 391 2212 530 
Q 2431 669 2431 922 
Q 2431 1156 2273 1281 
Q 2116 1406 1581 1522 
L 1381 1569 
Q 847 1681 609 1914 
Q 372 2147 372 2553 
Q 372 3047 722 3315 
Q 1072 3584 1716 3584 
Q 2034 3584 2315 3537 
Q 2597 3491 2834 3397 
z
" transform="scale(0.015625)"/>
       <path id="DejaVuSans-40" d="M 1947 4863 
L 1947 -844 
L 622 -844 
L 622 -397 
L 1369 -397 
L 1369 4416 
L 622 4416 
L 622 4863 
L 1947 4863 
z
" transform="scale(0.015625)"/>
      </defs>
      <use xlink:href="#DejaVuSans-37" transform="translate(0 0.015625)"/>
      <use xlink:href="#DejaVuSans-4c" transform="translate(58.083984 0.015625)"/>
      <use xlink:href="#DejaVuSans-48" transform="translate(85.867188 0.015625)"/>
      <use xlink:href="#DejaVuSans-50" transform="translate(147.390625 0.015625)"/>
      <use xlink:href="#DejaVuSans-53" transform="translate(244.802734 0.015625)"/>
      <use xlink:href="#DejaVuSans-52" transform="translate(308.279297 0.015625)"/>
      <use xlink:href="#DejaVuSans-3" transform="translate(369.460938 0.015625)"/>
      <use xlink:href="#DejaVuSans-47" transform="translate(401.248047 0.015625)"/>
      <use xlink:href="#DejaVuSans-48" transform="translate(464.724609 0.015625)"/>
      <use xlink:href="#DejaVuSans-3" transform="translate(526.248047 0.015625)"/>
      <use xlink:href="#DejaVuSans-55" transform="translate(558.035156 0.015625)"/>
      <use xlink:href="#DejaVuSans-48" transform="translate(597.148438 0.015625)"/>
      <use xlink:href="#DejaVuSans-59" transform="translate(658.671875 0.015625)"/>
      <use xlink:href="#DejaVuSans-48" transform="translate(717.851562 0.015625)"/>
      <use xlink:href="#DejaVuSans-55" transform="translate(779.375 0.015625)"/>
      <use xlink:href="#DejaVuSans-45" transform="translate(820.488281 0.015625)"/>
      <use xlink:href="#DejaVuSans-48" transform="translate(883.964844 0.015625)"/>
      <use xlink:href="#DejaVuSans-55" transform="translate(945.488281 0.015625)"/>
      <use xlink:href="#DejaVuSans-44" transform="translate(986.601562 0.015625)"/>
      <use xlink:href="#DejaVuSans-46" transform="translate(1047.880859 0.015625)"/>
      <use xlink:href="#DejaVuSans-4c" transform="translate(1102.861328 0.015625)"/>
      <use xlink:href="#DejaVuSans-b5" transform="translate(1130.644531 0.015625)"/>
      <use xlink:href="#DejaVuSans-51" transform="translate(1191.826172 0.015625)"/>
      <use xlink:href="#DejaVuSans-3" transform="translate(1255.205078 0.015625)"/>
      <use xlink:href="#DejaVuSans-Oblique-37" transform="translate(1286.992188 0.015625)"/>
      <use xlink:href="#DejaVuSans-19" transform="translate(1348.076172 -14.984326) scale(0.7)"/>
      <use xlink:href="#DejaVuSans-13" transform="translate(1392.612305 -14.984326) scale(0.7)"/>
      <use xlink:href="#DejaVuSans-3" transform="translate(1439.882812 0.015625)"/>
      <use xlink:href="#DejaVuSans-3e" transform="translate(1471.669922 0.015625)"/>
      <use xlink:href="#DejaVuSans-56" transform="translate(1510.683594 0.015625)"/>
      <use xlink:href="#DejaVuSans-40" transform="translate(1562.783203 0.015625)"/>
     </g>
    </g>
   </g>
   <g id="matplotlib.axis_2">
    <g id="ytick_1">
     <g id="line2d_21">
      <path d="M 44.103125 340.648125 
L 602.103125 340.648125 
" clip-path="url(#pe2102e52f6)" style="fill: none; stroke-dasharray: 2.96,1.28; stroke-dashoffset: 0; stroke: #ffffff; stroke-opacity: 0.5; stroke-width: 0.8"/>
     </g>
     <g id="line2d_22">
      <defs>
       <path id="m5e07181663" d="M 0 0 
L -3.5 0 
" style="stroke: #ffffff; stroke-width: 0.8"/>
      </defs>
      <g>
       <use xlink:href="#m5e07181663" x="44.103125" y="340.648125" style="fill: #ffffff; stroke: #ffffff; stroke-width: 0.8"/>
      </g>
     </g>
     <g id="text_9">
      <!-- 0,2 -->
      <g style="fill: #ffffff" transform="translate(21.2 344.446953) scale(0.1 -0.1)">
       <use xlink:href="#DejaVuSans-13"/>
       <use xlink:href="#DejaVuSans-f" transform="translate(63.625 0)"/>
       <use xlink:href="#DejaVuSans-15" transform="translate(95.40625 0)"/>
      </g>
     </g>
    </g>
    <g id="ytick_2">
     <g id="line2d_23">
      <path d="M 44.103125 299.068125 
L 602.103125 299.068125 
" clip-path="url(#pe2102e52f6)" style="fill: none; stroke-dasharray: 2.96,1.28; stroke-dashoffset: 0; stroke: #ffffff; stroke-opacity: 0.5; stroke-width: 0.8"/>
     </g>
     <g id="line2d_24">
      <g>
       <use xlink:href="#m5e07181663" x="44.103125" y="299.068125" style="fill: #ffffff; stroke: #ffffff; stroke-width: 0.8"/>
      </g>
     </g>
     <g id="text_10">
      <!-- 0,3 -->
      <g style="fill: #ffffff" transform="translate(21.2 302.866953) scale(0.1 -0.1)">
       <use xlink:href="#DejaVuSans-13"/>
       <use xlink:href="#DejaVuSans-f" transform="translate(63.625 0)"/>
       <use xlink:href="#DejaVuSans-16" transform="translate(95.40625 0)"/>
      </g>
     </g>
    </g>
    <g id="ytick_3">
     <g id="line2d_25">
      <path d="M 44.103125 257.488125 
L 602.103125 257.488125 
" clip-path="url(#pe2102e52f6)" style="fill: none; stroke-dasharray: 2.96,1.28; stroke-dashoffset: 0; stroke: #ffffff; stroke-opacity: 0.5; stroke-width: 0.8"/>
     </g>
     <g id="line2d_26">
      <g>
       <use xlink:href="#m5e07181663" x="44.103125" y="257.488125" style="fill: #ffffff; stroke: #ffffff; stroke-width: 0.8"/>
      </g>
     </g>
     <g id="text_11">
      <!-- 0,4 -->
      <g style="fill: #ffffff" transform="translate(21.2 261.286953) scale(0.1 -0.1)">
       <defs>
        <path id="DejaVuSans-17" d="M 2419 4116 
L 825 1625 
L 2419 1625 
L 2419 4116 
z
M 2253 4666 
L 3047 4666 
L 3047 1625 
L 3713 1625 
L 3713 1100 
L 3047 1100 
L 3047 0 
L 2419 0 
L 2419 1100 
L 313 1100 
L 313 1709 
L 2253 4666 
z
" transform="scale(0.015625)"/>
       </defs>
       <use xlink:href="#DejaVuSans-13"/>
       <use xlink:href="#DejaVuSans-f" transform="translate(63.625 0)"/>
       <use xlink:href="#DejaVuSans-17" transform="translate(95.40625 0)"/>
      </g>
     </g>
    </g>
    <g id="ytick_4">
     <g id="line2d_27">
      <path d="M 44.103125 215.908125 
L 602.103125 215.908125 
" clip-path="url(#pe2102e52f6)" style="fill: none; stroke-dasharray: 2.96,1.28; stroke-dashoffset: 0; stroke: #ffffff; stroke-opacity: 0.5; stroke-width: 0.8"/>
     </g>
     <g id="line2d_28">
      <g>
       <use xlink:href="#m5e07181663" x="44.103125" y="215.908125" style="fill: #ffffff; stroke: #ffffff; stroke-width: 0.8"/>
      </g>
     </g>
     <g id="text_12">
      <!-- 0,5 -->
      <g style="fill: #ffffff" transform="translate(21.2 219.706953) scale(0.1 -0.1)">
       <use xlink:href="#DejaVuSans-13"/>
       <use xlink:href="#DejaVuSans-f" transform="translate(63.625 0)"/>
       <use xlink:href="#DejaVuSans-18" transform="translate(95.40625 0)"/>
      </g>
     </g>
    </g>
    <g id="ytick_5">
     <g id="line2d_29">
      <path d="M 44.103125 174.328125 
L 602.103125 174.328125 
" clip-path="url(#pe2102e52f6)" style="fill: none; stroke-dasharray: 2.96,1.28; stroke-dashoffset: 0; stroke: #ffffff; stroke-opacity: 0.5; stroke-width: 0.8"/>
     </g>
     <g id="line2d_30">
      <g>
       <use xlink:href="#m5e07181663" x="44.103125" y="174.328125" style="fill: #ffffff; stroke: #ffffff; stroke-width: 0.8"/>
      </g>
     </g>
     <g id="text_13">
      <!-- 0,6 -->
      <g style="fill: #ffffff" transform="translate(21.2 178.126953) scale(0.1 -0.1)">
       <use xlink:href="#DejaVuSans-13"/>
       <use xlink:href="#DejaVuSans-f" transform="translate(63.625 0)"/>
       <use xlink:href="#DejaVuSans-19" transform="translate(95.40625 0)"/>
      </g>
     </g>
    </g>
    <g id="ytick_6">
     <g id="line2d_31">
      <path d="M 44.103125 132.748125 
L 602.103125 132.748125 
" clip-path="url(#pe2102e52f6)" style="fill: none; stroke-dasharray: 2.96,1.28; stroke-dashoffset: 0; stroke: #ffffff; stroke-opacity: 0.5; stroke-width: 0.8"/>
     </g>
     <g id="line2d_32">
      <g>
       <use xlink:href="#m5e07181663" x="44.103125" y="132.748125" style="fill: #ffffff; stroke: #ffffff; stroke-width: 0.8"/>
      </g>
     </g>
     <g id="text_14">
      <!-- 0,7 -->
      <g style="fill: #ffffff" transform="translate(21.2 136.546953) scale(0.1 -0.1)">
       <defs>
        <path id="DejaVuSans-1a" d="M 525 4666 
L 3525 4666 
L 3525 4397 
L 1831 0 
L 1172 0 
L 2766 4134 
L 525 4134 
L 525 4666 
z
" transform="scale(0.015625)"/>
       </defs>
       <use xlink:href="#DejaVuSans-13"/>
       <use xlink:href="#DejaVuSans-f" transform="translate(63.625 0)"/>
       <use xlink:href="#DejaVuSans-1a" transform="translate(95.40625 0)"/>
      </g>
     </g>
    </g>
    <g id="ytick_7">
     <g id="line2d_33">
      <path d="M 44.103125 91.168125 
L 602.103125 91.168125 
" clip-path="url(#pe2102e52f6)" style="fill: none; stroke-dasharray: 2.96,1.28; stroke-dashoffset: 0; stroke: #ffffff; stroke-opacity: 0.5; stroke-width: 0.8"/>
     </g>
     <g id="line2d_34">
      <g>
       <use xlink:href="#m5e07181663" x="44.103125" y="91.168125" style="fill: #ffffff; stroke: #ffffff; stroke-width: 0.8"/>
      </g>
     </g>
     <g id="text_15">
      <!-- 0,8 -->
      <g style="fill: #ffffff" transform="translate(21.2 94.966953) scale(0.1 -0.1)">
       <use xlink:href="#DejaVuSans-13"/>
       <use xlink:href="#DejaVuSans-f" transform="translate(63.625 0)"/>
       <use xlink:href="#DejaVuSans-1b" transform="translate(95.40625 0)"/>
      </g>
     </g>
    </g>
    <g id="ytick_8">
     <g id="line2d_35">
      <path d="M 44.103125 49.588125 
L 602.103125 49.588125 
" clip-path="url(#pe2102e52f6)" style="fill: none; stroke-dasharray: 2.96,1.28; stroke-dashoffset: 0; stroke: #ffffff; stroke-opacity: 0.5; stroke-width: 0.8"/>
     </g>
     <g id="line2d_36">
      <g>
       <use xlink:href="#m5e07181663" x="44.103125" y="49.588125" style="fill: #ffffff; stroke: #ffffff; stroke-width: 0.8"/>
      </g>
     </g>
     <g id="text_16">
      <!-- 0,9 -->
      <g style="fill: #ffffff" transform="translate(21.2 53.386953) scale(0.1 -0.1)">
       <defs>
        <path id="DejaVuSans-1c" d="M 703 97 
L 703 672 
Q 941 559 1184 500 
Q 1428 441 1663 441 
Q 2288 441 2617 861 
Q 2947 1281 2994 2138 
Q 2813 1869 2534 1725 
Q 2256 1581 1919 1581 
Q 1219 1581 811 2004 
Q 403 2428 403 3163 
Q 403 3881 828 4315 
Q 1253 4750 1959 4750 
Q 2769 4750 3195 4129 
Q 3622 3509 3622 2328 
Q 3622 1225 3098 567 
Q 2575 -91 1691 -91 
Q 1453 -91 1209 -44 
Q 966 3 703 97 
z
M 1959 2075 
Q 2384 2075 2632 2365 
Q 2881 2656 2881 3163 
Q 2881 3666 2632 3958 
Q 2384 4250 1959 4250 
Q 1534 4250 1286 3958 
Q 1038 3666 1038 3163 
Q 1038 2656 1286 2365 
Q 1534 2075 1959 2075 
z
" transform="scale(0.015625)"/>
       </defs>
       <use xlink:href="#DejaVuSans-13"/>
       <use xlink:href="#DejaVuSans-f" transform="translate(63.625 0)"/>
       <use xlink:href="#DejaVuSans-1c" transform="translate(95.40625 0)"/>
      </g>
     </g>
    </g>
    <g id="text_17">
     <!-- STI -->
     <g style="fill: #ffffff" transform="translate(14.797656 202.82125) rotate(-90) scale(0.1 -0.1)">
      <defs>
       <path id="DejaVuSans-36" d="M 3425 4513 
L 3425 3897 
Q 3066 4069 2747 4153 
Q 2428 4238 2131 4238 
Q 1616 4238 1336 4038 
Q 1056 3838 1056 3469 
Q 1056 3159 1242 3001 
Q 1428 2844 1947 2747 
L 2328 2669 
Q 3034 2534 3370 2195 
Q 3706 1856 3706 1288 
Q 3706 609 3251 259 
Q 2797 -91 1919 -91 
Q 1588 -91 1214 -16 
Q 841 59 441 206 
L 441 856 
Q 825 641 1194 531 
Q 1563 422 1919 422 
Q 2459 422 2753 634 
Q 3047 847 3047 1241 
Q 3047 1584 2836 1778 
Q 2625 1972 2144 2069 
L 1759 2144 
Q 1053 2284 737 2584 
Q 422 2884 422 3419 
Q 422 4038 858 4394 
Q 1294 4750 2059 4750 
Q 2388 4750 2728 4690 
Q 3069 4631 3425 4513 
z
" transform="scale(0.015625)"/>
       <path id="DejaVuSans-2c" d="M 628 4666 
L 1259 4666 
L 1259 0 
L 628 0 
L 628 4666 
z
" transform="scale(0.015625)"/>
      </defs>
      <use xlink:href="#DejaVuSans-36"/>
      <use xlink:href="#DejaVuSans-37" transform="translate(63.484375 0)"/>
      <use xlink:href="#DejaVuSans-2c" transform="translate(124.5625 0)"/>
     </g>
    </g>
   </g>
   <g id="line2d_37">
    <path d="M 44.103125 67.967849 
L 66.535286 76.018922 
L 94.575487 87.007913 
L 102.987547 90.295908 
L 128.223728 101.10642 
L 147.851869 109.466959 
L 173.08805 121.064577 
L 187.10815 127.512691 
L 212.344331 139.911075 
L 226.364432 146.798578 
L 248.796592 158.517827 
L 268.424733 168.704765 
L 290.856894 181.054758 
L 313.289055 193.155624 
L 335.721215 205.004641 
L 358.153376 216.600389 
L 380.585537 227.94282 
L 403.017698 239.033347 
L 425.449859 249.874929 
L 447.882019 260.472152 
L 470.31418 270.831281 
L 492.746341 280.96026 
L 517.982522 292.092211 
L 543.218703 302.96079 
L 568.454884 313.583675 
L 593.691065 323.979873 
L 602.103125 327.193902 
L 602.103125 327.193902 
" clip-path="url(#pe2102e52f6)" style="fill: none; stroke-dasharray: 5.55,2.4; stroke-dashoffset: 0; stroke: #1f77b4; stroke-width: 1.5"/>
   </g>
   <g id="line2d_38">
    <defs>
     <path id="m0124a2d90b" d="M 0 3.5 
C 0.928211 3.5 1.81853 3.131218 2.474874 2.474874 
C 3.131218 1.81853 3.5 0.928211 3.5 0 
C 3.5 -0.928211 3.131218 -1.81853 2.474874 -2.474874 
C 1.81853 -3.131218 0.928211 -3.5 0 -3.5 
C -0.928211 -3.5 -1.81853 -3.131218 -2.474874 -2.474874 
C -3.131218 -1.81853 -3.5 -0.928211 -3.5 0 
C -3.5 0.928211 -3.131218 1.81853 -2.474874 2.474874 
C -1.81853 3.131218 -0.928211 3.5 0 3.5 
z
" style="stroke: #d62728; stroke-width: 1.6"/>
    </defs>
    <g clip-path="url(#pe2102e52f6)">
     <use xlink:href="#m0124a2d90b" x="76.11499" y="75.156741" style="fill: #ffffff; stroke: #d62728; stroke-width: 1.6"/>
     <use xlink:href="#m0124a2d90b" x="165.80532" y="115.023951" style="fill: #ffffff; stroke: #d62728; stroke-width: 1.6"/>
     <use xlink:href="#m0124a2d90b" x="248.328159" y="159.718799" style="fill: #ffffff; stroke: #d62728; stroke-width: 1.6"/>
     <use xlink:href="#m0124a2d90b" x="319.519379" y="192.419728" style="fill: #ffffff; stroke: #d62728; stroke-width: 1.6"/>
     <use xlink:href="#m0124a2d90b" x="409.20971" y="240.757331" style="fill: #ffffff; stroke: #d62728; stroke-width: 1.6"/>
     <use xlink:href="#m0124a2d90b" x="480.40093" y="272.027682" style="fill: #ffffff; stroke: #d62728; stroke-width: 1.6"/>
     <use xlink:href="#m0124a2d90b" x="570.09126" y="309.943406" style="fill: #ffffff; stroke: #d62728; stroke-width: 1.6"/>
    </g>
   </g>
   <g id="patch_15">
    <path d="M 44.103125 361.438125 
L 44.103125 28.798125 
" style="fill: none; stroke: #ffffff; stroke-width: 0.8; stroke-linejoin: miter; stroke-linecap: square"/>
   </g>
   <g id="patch_16">
    <path d="M 602.103125 361.438125 
L 602.103125 28.798125 
" style="fill: none; stroke: #ffffff; stroke-width: 0.8; stroke-linejoin: miter; stroke-linecap: square"/>
   </g>
   <g id="patch_17">
    <path d="M 44.103125 361.438125 
L 602.103125 361.438125 
" style="fill: none; stroke: #ffffff; stroke-width: 0.8; stroke-linejoin: miter; stroke-linecap: square"/>
   </g>
   <g id="patch_18">
    <path d="M 44.103125 28.798125 
L 602.103125 28.798125 
" style="fill: none; stroke: #ffffff; stroke-width: 0.8; stroke-linejoin: miter; stroke-linecap: square"/>
   </g>
   <g id="text_18">
    <!-- U -->
    <g style="fill: #ffffff; opacity: 0.7" transform="translate(587.878125 319.85725) scale(0.08 -0.08)">
     <defs>
      <path id="DejaVuSans-38" d="M 556 4666 
L 1191 4666 
L 1191 1831 
Q 1191 1081 1462 751 
Q 1734 422 2344 422 
Q 2950 422 3222 751 
Q 3494 1081 3494 1831 
L 3494 4666 
L 4128 4666 
L 4128 1753 
Q 4128 841 3676 375 
Q 3225 -91 2344 -91 
Q 1459 -91 1007 375 
Q 556 841 556 1753 
L 556 4666 
z
" transform="scale(0.015625)"/>
     </defs>
     <use xlink:href="#DejaVuSans-38"/>
    </g>
   </g>
   <g id="text_19">
    <!-- J -->
    <g style="fill: #ffffff; opacity: 0.7" transform="translate(591.373125 267.88225) scale(0.08 -0.08)">
     <defs>
      <path id="DejaVuSans-2d" d="M 628 4666 
L 1259 4666 
L 1259 325 
Q 1259 -519 939 -900 
Q 619 -1281 -91 -1281 
L -331 -1281 
L -331 -750 
L -134 -750 
Q 284 -750 456 -515 
Q 628 -281 628 325 
L 628 4666 
z
" transform="scale(0.015625)"/>
     </defs>
     <use xlink:href="#DejaVuSans-2d"/>
    </g>
   </g>
   <g id="text_20">
    <!-- I -->
    <g style="fill: #ffffff; opacity: 0.7" transform="translate(591.373125 251.25025) scale(0.08 -0.08)">
     <use xlink:href="#DejaVuSans-2c"/>
    </g>
   </g>
   <g id="text_21">
    <!-- H -->
    <g style="fill: #ffffff; opacity: 0.7" transform="translate(587.716875 234.61825) scale(0.08 -0.08)">
     <defs>
      <path id="DejaVuSans-2b" d="M 628 4666 
L 1259 4666 
L 1259 2753 
L 3553 2753 
L 3553 4666 
L 4184 4666 
L 4184 0 
L 3553 0 
L 3553 2222 
L 1259 2222 
L 1259 0 
L 628 0 
L 628 4666 
z
" transform="scale(0.015625)"/>
     </defs>
     <use xlink:href="#DejaVuSans-2b"/>
    </g>
   </g>
   <g id="text_22">
    <!-- G -->
    <g style="fill: #ffffff; opacity: 0.7" transform="translate(587.534375 217.98625) scale(0.08 -0.08)">
     <defs>
      <path id="DejaVuSans-2a" d="M 3809 666 
L 3809 1919 
L 2778 1919 
L 2778 2438 
L 4434 2438 
L 4434 434 
Q 4069 175 3628 42 
Q 3188 -91 2688 -91 
Q 1594 -91 976 548 
Q 359 1188 359 2328 
Q 359 3472 976 4111 
Q 1594 4750 2688 4750 
Q 3144 4750 3555 4637 
Q 3966 4525 4313 4306 
L 4313 3634 
Q 3963 3931 3569 4081 
Q 3175 4231 2741 4231 
Q 1884 4231 1454 3753 
Q 1025 3275 1025 2328 
Q 1025 1384 1454 906 
Q 1884 428 2741 428 
Q 3075 428 3337 486 
Q 3600 544 3809 666 
z
" transform="scale(0.015625)"/>
     </defs>
     <use xlink:href="#DejaVuSans-2a"/>
    </g>
   </g>
   <g id="text_23">
    <!-- F -->
    <g style="fill: #ffffff; opacity: 0.7" transform="translate(589.131875 201.35425) scale(0.08 -0.08)">
     <defs>
      <path id="DejaVuSans-29" d="M 628 4666 
L 3309 4666 
L 3309 4134 
L 1259 4134 
L 1259 2759 
L 3109 2759 
L 3109 2228 
L 1259 2228 
L 1259 0 
L 628 0 
L 628 4666 
z
" transform="scale(0.015625)"/>
     </defs>
     <use xlink:href="#DejaVuSans-29"/>
    </g>
   </g>
   <g id="text_24">
    <!-- E -->
    <g style="fill: #ffffff; opacity: 0.7" transform="translate(588.678125 184.72225) scale(0.08 -0.08)">
     <defs>
      <path id="DejaVuSans-28" d="M 628 4666 
L 3578 4666 
L 3578 4134 
L 1259 4134 
L 1259 2753 
L 3481 2753 
L 3481 2222 
L 1259 2222 
L 1259 531 
L 3634 531 
L 3634 0 
L 628 0 
L 628 4666 
z
" transform="scale(0.015625)"/>
     </defs>
     <use xlink:href="#DejaVuSans-28"/>
    </g>
   </g>
   <g id="text_25">
    <!-- D -->
    <g style="fill: #ffffff; opacity: 0.7" transform="translate(587.573125 168.09025) scale(0.08 -0.08)">
     <defs>
      <path id="DejaVuSans-27" d="M 1259 4147 
L 1259 519 
L 2022 519 
Q 2988 519 3436 956 
Q 3884 1394 3884 2338 
Q 3884 3275 3436 3711 
Q 2988 4147 2022 4147 
L 1259 4147 
z
M 628 4666 
L 1925 4666 
Q 3281 4666 3915 4102 
Q 4550 3538 4550 2338 
Q 4550 1131 3912 565 
Q 3275 0 1925 0 
L 628 0 
L 628 4666 
z
" transform="scale(0.015625)"/>
     </defs>
     <use xlink:href="#DejaVuSans-27"/>
    </g>
   </g>
   <g id="text_26">
    <!-- C -->
    <g style="fill: #ffffff; opacity: 0.7" transform="translate(588.146875 151.45825) scale(0.08 -0.08)">
     <defs>
      <path id="DejaVuSans-26" d="M 4122 4306 
L 4122 3641 
Q 3803 3938 3442 4084 
Q 3081 4231 2675 4231 
Q 1875 4231 1450 3742 
Q 1025 3253 1025 2328 
Q 1025 1406 1450 917 
Q 1875 428 2675 428 
Q 3081 428 3442 575 
Q 3803 722 4122 1019 
L 4122 359 
Q 3791 134 3420 21 
Q 3050 -91 2638 -91 
Q 1578 -91 968 557 
Q 359 1206 359 2328 
Q 359 3453 968 4101 
Q 1578 4750 2638 4750 
Q 3056 4750 3426 4639 
Q 3797 4528 4122 4306 
z
" transform="scale(0.015625)"/>
     </defs>
     <use xlink:href="#DejaVuSans-26"/>
    </g>
   </g>
   <g id="text_27">
    <!-- B -->
    <g style="fill: #ffffff; opacity: 0.7" transform="translate(588.244375 134.82625) scale(0.08 -0.08)">
     <defs>
      <path id="DejaVuSans-25" d="M 1259 2228 
L 1259 519 
L 2272 519 
Q 2781 519 3026 730 
Q 3272 941 3272 1375 
Q 3272 1813 3026 2020 
Q 2781 2228 2272 2228 
L 1259 2228 
z
M 1259 4147 
L 1259 2741 
L 2194 2741 
Q 2656 2741 2882 2914 
Q 3109 3088 3109 3444 
Q 3109 3797 2882 3972 
Q 2656 4147 2194 4147 
L 1259 4147 
z
M 628 4666 
L 2241 4666 
Q 2963 4666 3353 4366 
Q 3744 4066 3744 3513 
Q 3744 3084 3544 2831 
Q 3344 2578 2956 2516 
Q 3422 2416 3680 2098 
Q 3938 1781 3938 1306 
Q 3938 681 3513 340 
Q 3088 0 2303 0 
L 628 0 
L 628 4666 
z
" transform="scale(0.015625)"/>
     </defs>
     <use xlink:href="#DejaVuSans-25"/>
    </g>
   </g>
   <g id="text_28">
    <!-- A -->
    <g style="fill: #ffffff; opacity: 0.7" transform="translate(588.260625 118.19425) scale(0.08 -0.08)">
     <defs>
      <path id="DejaVuSans-24" d="M 2188 4044 
L 1331 1722 
L 3047 1722 
L 2188 4044 
z
M 1831 4666 
L 2547 4666 
L 4325 0 
L 3669 0 
L 3244 1197 
L 1141 1197 
L 716 0 
L 50 0 
L 1831 4666 
z
" transform="scale(0.015625)"/>
     </defs>
     <use xlink:href="#DejaVuSans-24"/>
    </g>
   </g>
   <g id="text_29">
    <!-- A+ -->
    <g style="fill: #ffffff; opacity: 0.7" transform="translate(581.556875 70.37725) scale(0.08 -0.08)">
     <defs>
      <path id="DejaVuSans-e" d="M 2944 4013 
L 2944 2272 
L 4684 2272 
L 4684 1741 
L 2944 1741 
L 2944 0 
L 2419 0 
L 2419 1741 
L 678 1741 
L 678 2272 
L 2419 2272 
L 2419 4013 
L 2944 4013 
z
" transform="scale(0.015625)"/>
     </defs>
     <use xlink:href="#DejaVuSans-24"/>
     <use xlink:href="#DejaVuSans-e" transform="translate(68.40625 0)"/>
    </g>
   </g>
   <g id="text_30">
    <!-- Calificación del Anexo F -->
    <g style="fill: #ffffff; opacity: 0.7" transform="translate(462.441875 40.186475) scale(0.08 -0.08)">
     <defs>
      <path id="DejaVuSans-4f" d="M 603 4863 
L 1178 4863 
L 1178 0 
L 603 0 
L 603 4863 
z
" transform="scale(0.015625)"/>
      <path id="DejaVuSans-13af" d="M 3431 3500 
L 3431 0 
L 2853 0 
L 2853 3053 
L 1275 3053 
L 1275 0 
L 697 0 
L 697 3053 
L 147 3053 
L 147 3500 
L 697 3500 
L 697 3744 
Q 697 4316 967 4589 
Q 1238 4863 1797 4863 
L 2375 4863 
L 2375 4384 
L 1825 4384 
Q 1516 4384 1395 4259 
Q 1275 4134 1275 3809 
L 1275 3500 
L 3431 3500 
z
M 2853 4856 
L 3431 4856 
L 3431 4128 
L 2853 4128 
L 2853 4856 
z
" transform="scale(0.015625)"/>
      <path id="DejaVuSans-5b" d="M 3513 3500 
L 2247 1797 
L 3578 0 
L 2900 0 
L 1881 1375 
L 863 0 
L 184 0 
L 1544 1831 
L 300 3500 
L 978 3500 
L 1906 2253 
L 2834 3500 
L 3513 3500 
z
" transform="scale(0.015625)"/>
     </defs>
     <use xlink:href="#DejaVuSans-26"/>
     <use xlink:href="#DejaVuSans-44" transform="translate(69.828125 0)"/>
     <use xlink:href="#DejaVuSans-4f" transform="translate(131.109375 0)"/>
     <use xlink:href="#DejaVuSans-4c" transform="translate(158.890625 0)"/>
     <use xlink:href="#DejaVuSans-13af" transform="translate(186.671875 0)"/>
     <use xlink:href="#DejaVuSans-46" transform="translate(249.65625 0)"/>
     <use xlink:href="#DejaVuSans-44" transform="translate(304.640625 0)"/>
     <use xlink:href="#DejaVuSans-46" transform="translate(365.921875 0)"/>
     <use xlink:href="#DejaVuSans-4c" transform="translate(420.90625 0)"/>
     <use xlink:href="#DejaVuSans-b5" transform="translate(448.6875 0)"/>
     <use xlink:href="#DejaVuSans-51" transform="translate(509.875 0)"/>
     <use xlink:href="#DejaVuSans-3" transform="translate(573.25 0)"/>
     <use xlink:href="#DejaVuSans-47" transform="translate(605.03125 0)"/>
     <use xlink:href="#DejaVuSans-48" transform="translate(668.515625 0)"/>
     <use xlink:href="#DejaVuSans-4f" transform="translate(730.046875 0)"/>
     <use xlink:href="#DejaVuSans-3" transform="translate(757.828125 0)"/>
     <use xlink:href="#DejaVuSans-24" transform="translate(789.609375 0)"/>
     <use xlink:href="#DejaVuSans-51" transform="translate(858.015625 0)"/>
     <use xlink:href="#DejaVuSans-48" transform="translate(921.390625 0)"/>
     <use xlink:href="#DejaVuSans-5b" transform="translate(981.171875 0)"/>
     <use xlink:href="#DejaVuSans-52" transform="translate(1037.28125 0)"/>
     <use xlink:href="#DejaVuSans-3" transform="translate(1098.46875 0)"/>
     <use xlink:href="#DejaVuSans-29" transform="translate(1130.25 0)"/>
    </g>
   </g>
   <g id="text_31">
    <!-- STI frente al tiempo de reverberación (IEC 60268-16) -->
    <g style="fill: #ffffff" transform="translate(143.575625 16.798125) scale(0.12 -0.12)">
     <defs>
      <path id="DejaVuSans-Bold-36" d="M 3834 4519 
L 3834 3531 
Q 3450 3703 3084 3790 
Q 2719 3878 2394 3878 
Q 1963 3878 1756 3759 
Q 1550 3641 1550 3391 
Q 1550 3203 1689 3098 
Q 1828 2994 2194 2919 
L 2706 2816 
Q 3484 2659 3812 2340 
Q 4141 2022 4141 1434 
Q 4141 663 3683 286 
Q 3225 -91 2284 -91 
Q 1841 -91 1394 -6 
Q 947 78 500 244 
L 500 1259 
Q 947 1022 1364 901 
Q 1781 781 2169 781 
Q 2563 781 2772 912 
Q 2981 1044 2981 1288 
Q 2981 1506 2839 1625 
Q 2697 1744 2272 1838 
L 1806 1941 
Q 1106 2091 782 2419 
Q 459 2747 459 3303 
Q 459 4000 909 4375 
Q 1359 4750 2203 4750 
Q 2588 4750 2994 4692 
Q 3400 4634 3834 4519 
z
" transform="scale(0.015625)"/>
      <path id="DejaVuSans-Bold-37" d="M 31 4666 
L 4331 4666 
L 4331 3756 
L 2784 3756 
L 2784 0 
L 1581 0 
L 1581 3756 
L 31 3756 
L 31 4666 
z
" transform="scale(0.015625)"/>
      <path id="DejaVuSans-Bold-2c" d="M 588 4666 
L 1791 4666 
L 1791 0 
L 588 0 
L 588 4666 
z
" transform="scale(0.015625)"/>
      <path id="DejaVuSans-Bold-3" transform="scale(0.015625)"/>
      <path id="DejaVuSans-Bold-49" d="M 2841 4863 
L 2841 4128 
L 2222 4128 
Q 1984 4128 1890 4042 
Q 1797 3956 1797 3744 
L 1797 3500 
L 2753 3500 
L 2753 2700 
L 1797 2700 
L 1797 0 
L 678 0 
L 678 2700 
L 122 2700 
L 122 3500 
L 678 3500 
L 678 3744 
Q 678 4316 997 4589 
Q 1316 4863 1984 4863 
L 2841 4863 
z
" transform="scale(0.015625)"/>
      <path id="DejaVuSans-Bold-55" d="M 3138 2547 
Q 2991 2616 2845 2648 
Q 2700 2681 2553 2681 
Q 2122 2681 1889 2404 
Q 1656 2128 1656 1613 
L 1656 0 
L 538 0 
L 538 3500 
L 1656 3500 
L 1656 2925 
Q 1872 3269 2151 3426 
Q 2431 3584 2822 3584 
Q 2878 3584 2943 3579 
Q 3009 3575 3134 3559 
L 3138 2547 
z
" transform="scale(0.015625)"/>
      <path id="DejaVuSans-Bold-48" d="M 4031 1759 
L 4031 1441 
L 1416 1441 
Q 1456 1047 1700 850 
Q 1944 653 2381 653 
Q 2734 653 3104 758 
Q 3475 863 3866 1075 
L 3866 213 
Q 3469 63 3072 -14 
Q 2675 -91 2278 -91 
Q 1328 -91 801 392 
Q 275 875 275 1747 
Q 275 2603 792 3093 
Q 1309 3584 2216 3584 
Q 3041 3584 3536 3087 
Q 4031 2591 4031 1759 
z
M 2881 2131 
Q 2881 2450 2695 2645 
Q 2509 2841 2209 2841 
Q 1884 2841 1681 2658 
Q 1478 2475 1428 2131 
L 2881 2131 
z
" transform="scale(0.015625)"/>
      <path id="DejaVuSans-Bold-51" d="M 4056 2131 
L 4056 0 
L 2931 0 
L 2931 347 
L 2931 1631 
Q 2931 2084 2911 2256 
Q 2891 2428 2841 2509 
Q 2775 2619 2662 2680 
Q 2550 2741 2406 2741 
Q 2056 2741 1856 2470 
Q 1656 2200 1656 1722 
L 1656 0 
L 538 0 
L 538 3500 
L 1656 3500 
L 1656 2988 
Q 1909 3294 2193 3439 
Q 2478 3584 2822 3584 
Q 3428 3584 3742 3212 
Q 4056 2841 4056 2131 
z
" transform="scale(0.015625)"/>
      <path id="DejaVuSans-Bold-57" d="M 1759 4494 
L 1759 3500 
L 2913 3500 
L 2913 2700 
L 1759 2700 
L 1759 1216 
Q 1759 972 1856 886 
Q 1953 800 2241 800 
L 2816 800 
L 2816 0 
L 1856 0 
Q 1194 0 917 276 
Q 641 553 641 1216 
L 641 2700 
L 84 2700 
L 84 3500 
L 641 3500 
L 641 4494 
L 1759 4494 
z
" transform="scale(0.015625)"/>
      <path id="DejaVuSans-Bold-44" d="M 2106 1575 
Q 1756 1575 1579 1456 
Q 1403 1338 1403 1106 
Q 1403 894 1545 773 
Q 1688 653 1941 653 
Q 2256 653 2472 879 
Q 2688 1106 2688 1447 
L 2688 1575 
L 2106 1575 
z
M 3816 1997 
L 3816 0 
L 2688 0 
L 2688 519 
Q 2463 200 2181 54 
Q 1900 -91 1497 -91 
Q 953 -91 614 226 
Q 275 544 275 1050 
Q 275 1666 698 1953 
Q 1122 2241 2028 2241 
L 2688 2241 
L 2688 2328 
Q 2688 2594 2478 2717 
Q 2269 2841 1825 2841 
Q 1466 2841 1156 2769 
Q 847 2697 581 2553 
L 581 3406 
Q 941 3494 1303 3539 
Q 1666 3584 2028 3584 
Q 2975 3584 3395 3211 
Q 3816 2838 3816 1997 
z
" transform="scale(0.015625)"/>
      <path id="DejaVuSans-Bold-4f" d="M 538 4863 
L 1656 4863 
L 1656 0 
L 538 0 
L 538 4863 
z
" transform="scale(0.015625)"/>
      <path id="DejaVuSans-Bold-4c" d="M 538 3500 
L 1656 3500 
L 1656 0 
L 538 0 
L 538 3500 
z
M 538 4863 
L 1656 4863 
L 1656 3950 
L 538 3950 
L 538 4863 
z
" transform="scale(0.015625)"/>
      <path id="DejaVuSans-Bold-50" d="M 3781 2919 
Q 3994 3244 4286 3414 
Q 4578 3584 4928 3584 
Q 5531 3584 5847 3212 
Q 6163 2841 6163 2131 
L 6163 0 
L 5038 0 
L 5038 1825 
Q 5041 1866 5042 1909 
Q 5044 1953 5044 2034 
Q 5044 2406 4934 2573 
Q 4825 2741 4581 2741 
Q 4263 2741 4089 2478 
Q 3916 2216 3909 1719 
L 3909 0 
L 2784 0 
L 2784 1825 
Q 2784 2406 2684 2573 
Q 2584 2741 2328 2741 
Q 2006 2741 1831 2477 
Q 1656 2213 1656 1722 
L 1656 0 
L 531 0 
L 531 3500 
L 1656 3500 
L 1656 2988 
Q 1863 3284 2130 3434 
Q 2397 3584 2719 3584 
Q 3081 3584 3359 3409 
Q 3638 3234 3781 2919 
z
" transform="scale(0.015625)"/>
      <path id="DejaVuSans-Bold-53" d="M 1656 506 
L 1656 -1331 
L 538 -1331 
L 538 3500 
L 1656 3500 
L 1656 2988 
Q 1888 3294 2169 3439 
Q 2450 3584 2816 3584 
Q 3463 3584 3878 3070 
Q 4294 2556 4294 1747 
Q 4294 938 3878 423 
Q 3463 -91 2816 -91 
Q 2450 -91 2169 54 
Q 1888 200 1656 506 
z
M 2400 2772 
Q 2041 2772 1848 2508 
Q 1656 2244 1656 1747 
Q 1656 1250 1848 986 
Q 2041 722 2400 722 
Q 2759 722 2948 984 
Q 3138 1247 3138 1747 
Q 3138 2247 2948 2509 
Q 2759 2772 2400 2772 
z
" transform="scale(0.015625)"/>
      <path id="DejaVuSans-Bold-52" d="M 2203 2784 
Q 1831 2784 1636 2517 
Q 1441 2250 1441 1747 
Q 1441 1244 1636 976 
Q 1831 709 2203 709 
Q 2569 709 2762 976 
Q 2956 1244 2956 1747 
Q 2956 2250 2762 2517 
Q 2569 2784 2203 2784 
z
M 2203 3584 
Q 3106 3584 3614 3096 
Q 4122 2609 4122 1747 
Q 4122 884 3614 396 
Q 3106 -91 2203 -91 
Q 1297 -91 786 396 
Q 275 884 275 1747 
Q 275 2609 786 3096 
Q 1297 3584 2203 3584 
z
" transform="scale(0.015625)"/>
      <path id="DejaVuSans-Bold-47" d="M 2919 2988 
L 2919 4863 
L 4044 4863 
L 4044 0 
L 2919 0 
L 2919 506 
Q 2688 197 2409 53 
Q 2131 -91 1766 -91 
Q 1119 -91 703 423 
Q 288 938 288 1747 
Q 288 2556 703 3070 
Q 1119 3584 1766 3584 
Q 2128 3584 2408 3439 
Q 2688 3294 2919 2988 
z
M 2181 722 
Q 2541 722 2730 984 
Q 2919 1247 2919 1747 
Q 2919 2247 2730 2509 
Q 2541 2772 2181 2772 
Q 1825 2772 1636 2509 
Q 1447 2247 1447 1747 
Q 1447 1247 1636 984 
Q 1825 722 2181 722 
z
" transform="scale(0.015625)"/>
      <path id="DejaVuSans-Bold-59" d="M 97 3500 
L 1216 3500 
L 2088 1081 
L 2956 3500 
L 4078 3500 
L 2700 0 
L 1472 0 
L 97 3500 
z
" transform="scale(0.015625)"/>
      <path id="DejaVuSans-Bold-45" d="M 2400 722 
Q 2759 722 2948 984 
Q 3138 1247 3138 1747 
Q 3138 2247 2948 2509 
Q 2759 2772 2400 2772 
Q 2041 2772 1848 2508 
Q 1656 2244 1656 1747 
Q 1656 1250 1848 986 
Q 2041 722 2400 722 
z
M 1656 2988 
Q 1888 3294 2169 3439 
Q 2450 3584 2816 3584 
Q 3463 3584 3878 3070 
Q 4294 2556 4294 1747 
Q 4294 938 3878 423 
Q 3463 -91 2816 -91 
Q 2450 -91 2169 54 
Q 1888 200 1656 506 
L 1656 0 
L 538 0 
L 538 4863 
L 1656 4863 
L 1656 2988 
z
" transform="scale(0.015625)"/>
      <path id="DejaVuSans-Bold-46" d="M 3366 3391 
L 3366 2478 
Q 3138 2634 2908 2709 
Q 2678 2784 2431 2784 
Q 1963 2784 1702 2511 
Q 1441 2238 1441 1747 
Q 1441 1256 1702 982 
Q 1963 709 2431 709 
Q 2694 709 2930 787 
Q 3166 866 3366 1019 
L 3366 103 
Q 3103 6 2833 -42 
Q 2563 -91 2291 -91 
Q 1344 -91 809 395 
Q 275 881 275 1747 
Q 275 2613 809 3098 
Q 1344 3584 2291 3584 
Q 2566 3584 2833 3536 
Q 3100 3488 3366 3391 
z
" transform="scale(0.015625)"/>
      <path id="DejaVuSans-Bold-b5" d="M 2203 2784 
Q 1831 2784 1636 2517 
Q 1441 2250 1441 1747 
Q 1441 1244 1636 976 
Q 1831 709 2203 709 
Q 2569 709 2762 976 
Q 2956 1244 2956 1747 
Q 2956 2250 2762 2517 
Q 2569 2784 2203 2784 
z
M 2203 3584 
Q 3106 3584 3614 3096 
Q 4122 2609 4122 1747 
Q 4122 884 3614 396 
Q 3106 -91 2203 -91 
Q 1297 -91 786 396 
Q 275 884 275 1747 
Q 275 2609 786 3096 
Q 1297 3584 2203 3584 
z
M 2694 5119 
L 3578 5119 
L 2425 3944 
L 1813 3944 
L 2694 5119 
z
" transform="scale(0.015625)"/>
      <path id="DejaVuSans-Bold-b" d="M 2413 -844 
L 1484 -844 
Q 1006 -72 778 623 
Q 550 1319 550 2003 
Q 550 2688 779 3389 
Q 1009 4091 1484 4856 
L 2413 4856 
Q 2013 4116 1813 3408 
Q 1613 2700 1613 2009 
Q 1613 1319 1811 609 
Q 2009 -100 2413 -844 
z
" transform="scale(0.015625)"/>
      <path id="DejaVuSans-Bold-28" d="M 588 4666 
L 3834 4666 
L 3834 3756 
L 1791 3756 
L 1791 2888 
L 3713 2888 
L 3713 1978 
L 1791 1978 
L 1791 909 
L 3903 909 
L 3903 0 
L 588 0 
L 588 4666 
z
" transform="scale(0.015625)"/>
      <path id="DejaVuSans-Bold-26" d="M 4288 256 
Q 3956 84 3597 -3 
Q 3238 -91 2847 -91 
Q 1681 -91 1000 561 
Q 319 1213 319 2328 
Q 319 3447 1000 4098 
Q 1681 4750 2847 4750 
Q 3238 4750 3597 4662 
Q 3956 4575 4288 4403 
L 4288 3438 
Q 3953 3666 3628 3772 
Q 3303 3878 2944 3878 
Q 2300 3878 1931 3465 
Q 1563 3053 1563 2328 
Q 1563 1606 1931 1193 
Q 2300 781 2944 781 
Q 3303 781 3628 887 
Q 3953 994 4288 1222 
L 4288 256 
z
" transform="scale(0.015625)"/>
      <path id="DejaVuSans-Bold-19" d="M 2316 2303 
Q 2000 2303 1842 2098 
Q 1684 1894 1684 1484 
Q 1684 1075 1842 870 
Q 2000 666 2316 666 
Q 2634 666 2792 870 
Q 2950 1075 2950 1484 
Q 2950 1894 2792 2098 
Q 2634 2303 2316 2303 
z
M 3803 4544 
L 3803 3681 
Q 3506 3822 3243 3889 
Q 2981 3956 2731 3956 
Q 2194 3956 1894 3657 
Q 1594 3359 1544 2772 
Q 1750 2925 1990 3001 
Q 2231 3078 2516 3078 
Q 3231 3078 3670 2659 
Q 4109 2241 4109 1563 
Q 4109 813 3618 361 
Q 3128 -91 2303 -91 
Q 1394 -91 895 523 
Q 397 1138 397 2266 
Q 397 3422 980 4083 
Q 1563 4744 2578 4744 
Q 2900 4744 3203 4694 
Q 3506 4644 3803 4544 
z
" transform="scale(0.015625)"/>
      <path id="DejaVuSans-Bold-13" d="M 2944 2338 
Q 2944 3213 2780 3570 
Q 2616 3928 2228 3928 
Q 1841 3928 1675 3570 
Q 1509 3213 1509 2338 
Q 1509 1453 1675 1090 
Q 1841 728 2228 728 
Q 2613 728 2778 1090 
Q 2944 1453 2944 2338 
z
M 4147 2328 
Q 4147 1169 3647 539 
Q 3147 -91 2228 -91 
Q 1306 -91 806 539 
Q 306 1169 306 2328 
Q 306 3491 806 4120 
Q 1306 4750 2228 4750 
Q 3147 4750 3647 4120 
Q 4147 3491 4147 2328 
z
" transform="scale(0.015625)"/>
      <path id="DejaVuSans-Bold-15" d="M 1844 884 
L 3897 884 
L 3897 0 
L 506 0 
L 506 884 
L 2209 2388 
Q 2438 2594 2547 2791 
Q 2656 2988 2656 3200 
Q 2656 3528 2436 3728 
Q 2216 3928 1850 3928 
Q 1569 3928 1234 3808 
Q 900 3688 519 3450 
L 519 4475 
Q 925 4609 1322 4679 
Q 1719 4750 2100 4750 
Q 2938 4750 3402 4381 
Q 3866 4013 3866 3353 
Q 3866 2972 3669 2642 
Q 3472 2313 2841 1759 
L 1844 884 
z
" transform="scale(0.015625)"/>
      <path id="DejaVuSans-Bold-1b" d="M 2228 2088 
Q 1891 2088 1709 1903 
Q 1528 1719 1528 1375 
Q 1528 1031 1709 848 
Q 1891 666 2228 666 
Q 2563 666 2741 848 
Q 2919 1031 2919 1375 
Q 2919 1722 2741 1905 
Q 2563 2088 2228 2088 
z
M 1350 2484 
Q 925 2613 709 2878 
Q 494 3144 494 3541 
Q 494 4131 934 4440 
Q 1375 4750 2228 4750 
Q 3075 4750 3515 4442 
Q 3956 4134 3956 3541 
Q 3956 3144 3739 2878 
Q 3522 2613 3097 2484 
Q 3572 2353 3814 2058 
Q 4056 1763 4056 1313 
Q 4056 619 3595 264 
Q 3134 -91 2228 -91 
Q 1319 -91 855 264 
Q 391 619 391 1313 
Q 391 1763 633 2058 
Q 875 2353 1350 2484 
z
M 1631 3419 
Q 1631 3141 1786 2991 
Q 1941 2841 2228 2841 
Q 2509 2841 2662 2991 
Q 2816 3141 2816 3419 
Q 2816 3697 2662 3845 
Q 2509 3994 2228 3994 
Q 1941 3994 1786 3844 
Q 1631 3694 1631 3419 
z
" transform="scale(0.015625)"/>
      <path id="DejaVuSans-Bold-10" d="M 347 2297 
L 2309 2297 
L 2309 1388 
L 347 1388 
L 347 2297 
z
" transform="scale(0.015625)"/>
      <path id="DejaVuSans-Bold-14" d="M 750 831 
L 1813 831 
L 1813 3847 
L 722 3622 
L 722 4441 
L 1806 4666 
L 2950 4666 
L 2950 831 
L 4013 831 
L 4013 0 
L 750 0 
L 750 831 
z
" transform="scale(0.015625)"/>
      <path id="DejaVuSans-Bold-c" d="M 513 -844 
Q 913 -100 1113 609 
Q 1313 1319 1313 2009 
Q 1313 2700 1113 3408 
Q 913 4116 513 4856 
L 1441 4856 
Q 1916 4091 2145 3389 
Q 2375 2688 2375 2003 
Q 2375 1319 2147 623 
Q 1919 -72 1441 -844 
L 513 -844 
z
" transform="scale(0.015625)"/>
     </defs>
     <use xlink:href="#DejaVuSans-Bold-36"/>
     <use xlink:href="#DejaVuSans-Bold-37" transform="translate(72.015625 0)"/>
     <use xlink:href="#DejaVuSans-Bold-2c" transform="translate(140.234375 0)"/>
     <use xlink:href="#DejaVuSans-Bold-3" transform="translate(177.4375 0)"/>
     <use xlink:href="#DejaVuSans-Bold-49" transform="translate(212.25 0)"/>
     <use xlink:href="#DejaVuSans-Bold-55" transform="translate(255.75 0)"/>
     <use xlink:href="#DejaVuSans-Bold-48" transform="translate(305.0625 0)"/>
     <use xlink:href="#DejaVuSans-Bold-51" transform="translate(372.890625 0)"/>
     <use xlink:href="#DejaVuSans-Bold-57" transform="translate(444.078125 0)"/>
     <use xlink:href="#DejaVuSans-Bold-48" transform="translate(491.875 0)"/>
     <use xlink:href="#DejaVuSans-Bold-3" transform="translate(559.703125 0)"/>
     <use xlink:href="#DejaVuSans-Bold-44" transform="translate(594.515625 0)"/>
     <use xlink:href="#DejaVuSans-Bold-4f" transform="translate(662 0)"/>
     <use xlink:href="#DejaVuSans-Bold-3" transform="translate(696.28125 0)"/>
     <use xlink:href="#DejaVuSans-Bold-57" transform="translate(731.09375 0)"/>
     <use xlink:href="#DejaVuSans-Bold-4c" transform="translate(778.890625 0)"/>
     <use xlink:href="#DejaVuSans-Bold-48" transform="translate(813.171875 0)"/>
     <use xlink:href="#DejaVuSans-Bold-50" transform="translate(881 0)"/>
     <use xlink:href="#DejaVuSans-Bold-53" transform="translate(985.203125 0)"/>
     <use xlink:href="#DejaVuSans-Bold-52" transform="translate(1056.78125 0)"/>
     <use xlink:href="#DejaVuSans-Bold-3" transform="translate(1125.484375 0)"/>
     <use xlink:href="#DejaVuSans-Bold-47" transform="translate(1160.296875 0)"/>
     <use xlink:href="#DejaVuSans-Bold-48" transform="translate(1231.875 0)"/>
     <use xlink:href="#DejaVuSans-Bold-3" transform="translate(1299.703125 0)"/>
     <use xlink:href="#DejaVuSans-Bold-55" transform="translate(1334.515625 0)"/>
     <use xlink:href="#DejaVuSans-Bold-48" transform="translate(1383.828125 0)"/>
     <use xlink:href="#DejaVuSans-Bold-59" transform="translate(1451.65625 0)"/>
     <use xlink:href="#DejaVuSans-Bold-48" transform="translate(1516.84375 0)"/>
     <use xlink:href="#DejaVuSans-Bold-55" transform="translate(1584.671875 0)"/>
     <use xlink:href="#DejaVuSans-Bold-45" transform="translate(1633.984375 0)"/>
     <use xlink:href="#DejaVuSans-Bold-48" transform="translate(1705.5625 0)"/>
     <use xlink:href="#DejaVuSans-Bold-55" transform="translate(1773.390625 0)"/>
     <use xlink:href="#DejaVuSans-Bold-44" transform="translate(1822.703125 0)"/>
     <use xlink:href="#DejaVuSans-Bold-46" transform="translate(1890.1875 0)"/>
     <use xlink:href="#DejaVuSans-Bold-4c" transform="translate(1949.46875 0)"/>
     <use xlink:href="#DejaVuSans-Bold-b5" transform="translate(1983.75 0)"/>
     <use xlink:href="#DejaVuSans-Bold-51" transform="translate(2052.453125 0)"/>
     <use xlink:href="#DejaVuSans-Bold-3" transform="translate(2123.640625 0)"/>
     <use xlink:href="#DejaVuSans-Bold-b" transform="translate(2158.453125 0)"/>
     <use xlink:href="#DejaVuSans-Bold-2c" transform="translate(2204.15625 0)"/>
     <use xlink:href="#DejaVuSans-Bold-28" transform="translate(2241.359375 0)"/>
     <use xlink:href="#DejaVuSans-Bold-26" transform="translate(2309.671875 0)"/>
     <use xlink:href="#DejaVuSans-Bold-3" transform="translate(2383.0625 0)"/>
     <use xlink:href="#DejaVuSans-Bold-19" transform="translate(2417.875 0)"/>
     <use xlink:href="#DejaVuSans-Bold-13" transform="translate(2487.453125 0)"/>
     <use xlink:href="#DejaVuSans-Bold-15" transform="translate(2557.03125 0)"/>
     <use xlink:href="#DejaVuSans-Bold-19" transform="translate(2626.609375 0)"/>
     <use xlink:href="#DejaVuSans-Bold-1b" transform="translate(2696.1875 0)"/>
     <use xlink:href="#DejaVuSans-Bold-10" transform="translate(2765.765625 0)"/>
     <use xlink:href="#DejaVuSans-Bold-14" transform="translate(2807.265625 0)"/>
     <use xlink:href="#DejaVuSans-Bold-19" transform="translate(2876.84375 0)"/>
     <use xlink:href="#DejaVuSans-Bold-c" transform="translate(2946.421875 0)"/>
    </g>
   </g>
   <g id="legend_1">
    <g id="patch_19">
     <path d="M 50.403125 356.938125 
L 275.280781 356.938125 
Q 277.080781 356.938125 277.080781 355.138125 
L 277.080781 328.676719 
Q 277.080781 326.876719 275.280781 326.876719 
L 50.403125 326.876719 
Q 48.603125 326.876719 48.603125 328.676719 
L 48.603125 355.138125 
Q 48.603125 356.938125 50.403125 356.938125 
z
" style="opacity: 0.8; stroke: #cccccc; stroke-linejoin: miter"/>
    </g>
    <g id="line2d_39">
     <path d="M 52.203125 334.525312 
L 61.203125 334.525312 
L 70.203125 334.525312 
" style="fill: none; stroke-dasharray: 5.55,2.4; stroke-dashoffset: 0; stroke: #1f77b4; stroke-width: 1.5"/>
    </g>
    <g id="text_32">
     <!-- MTF de Schroeder analítica (forma cerrada) -->
     <g style="fill: #ffffff" transform="translate(77.403125 337.675312) scale(0.09 -0.09)">
      <defs>
       <path id="DejaVuSans-30" d="M 628 4666 
L 1569 4666 
L 2759 1491 
L 3956 4666 
L 4897 4666 
L 4897 0 
L 4281 0 
L 4281 4097 
L 3078 897 
L 2444 897 
L 1241 4097 
L 1241 0 
L 628 0 
L 628 4666 
z
" transform="scale(0.015625)"/>
       <path id="DejaVuSans-4b" d="M 3513 2113 
L 3513 0 
L 2938 0 
L 2938 2094 
Q 2938 2591 2744 2837 
Q 2550 3084 2163 3084 
Q 1697 3084 1428 2787 
Q 1159 2491 1159 1978 
L 1159 0 
L 581 0 
L 581 4863 
L 1159 4863 
L 1159 2956 
Q 1366 3272 1645 3428 
Q 1925 3584 2291 3584 
Q 2894 3584 3203 3211 
Q 3513 2838 3513 2113 
z
" transform="scale(0.015625)"/>
       <path id="DejaVuSans-af" d="M 1325 5119 
L 1947 5119 
L 929 3944 
L 450 3944 
L 1325 5119 
z
M 603 3500 
L 1178 3500 
L 1178 0 
L 603 0 
L 603 3500 
z
M 891 3584 
L 891 3584 
z
" transform="scale(0.015625)"/>
       <path id="DejaVuSans-57" d="M 1172 4494 
L 1172 3500 
L 2356 3500 
L 2356 3053 
L 1172 3053 
L 1172 1153 
Q 1172 725 1289 603 
Q 1406 481 1766 481 
L 2356 481 
L 2356 0 
L 1766 0 
Q 1100 0 847 248 
Q 594 497 594 1153 
L 594 3053 
L 172 3053 
L 172 3500 
L 594 3500 
L 594 4494 
L 1172 4494 
z
" transform="scale(0.015625)"/>
       <path id="DejaVuSans-b" d="M 1984 4856 
Q 1566 4138 1362 3434 
Q 1159 2731 1159 2009 
Q 1159 1288 1364 580 
Q 1569 -128 1984 -844 
L 1484 -844 
Q 1016 -109 783 600 
Q 550 1309 550 2009 
Q 550 2706 781 3412 
Q 1013 4119 1484 4856 
L 1984 4856 
z
" transform="scale(0.015625)"/>
       <path id="DejaVuSans-49" d="M 2375 4863 
L 2375 4384 
L 1825 4384 
Q 1516 4384 1395 4259 
Q 1275 4134 1275 3809 
L 1275 3500 
L 2222 3500 
L 2222 3053 
L 1275 3053 
L 1275 0 
L 697 0 
L 697 3053 
L 147 3053 
L 147 3500 
L 697 3500 
L 697 3744 
Q 697 4328 969 4595 
Q 1241 4863 1831 4863 
L 2375 4863 
z
" transform="scale(0.015625)"/>
       <path id="DejaVuSans-c" d="M 513 4856 
L 1013 4856 
Q 1481 4119 1714 3412 
Q 1947 2706 1947 2009 
Q 1947 1309 1714 600 
Q 1481 -109 1013 -844 
L 513 -844 
Q 928 -128 1133 580 
Q 1338 1288 1338 2009 
Q 1338 2731 1133 3434 
Q 928 4138 513 4856 
z
" transform="scale(0.015625)"/>
      </defs>
      <use xlink:href="#DejaVuSans-30"/>
      <use xlink:href="#DejaVuSans-37" transform="translate(86.28125 0)"/>
      <use xlink:href="#DejaVuSans-29" transform="translate(147.359375 0)"/>
      <use xlink:href="#DejaVuSans-3" transform="translate(204.875 0)"/>
      <use xlink:href="#DejaVuSans-47" transform="translate(236.65625 0)"/>
      <use xlink:href="#DejaVuSans-48" transform="translate(300.140625 0)"/>
      <use xlink:href="#DejaVuSans-3" transform="translate(361.671875 0)"/>
      <use xlink:href="#DejaVuSans-36" transform="translate(393.453125 0)"/>
      <use xlink:href="#DejaVuSans-46" transform="translate(456.9375 0)"/>
      <use xlink:href="#DejaVuSans-4b" transform="translate(511.921875 0)"/>
      <use xlink:href="#DejaVuSans-55" transform="translate(575.296875 0)"/>
      <use xlink:href="#DejaVuSans-52" transform="translate(614.203125 0)"/>
      <use xlink:href="#DejaVuSans-48" transform="translate(675.390625 0)"/>
      <use xlink:href="#DejaVuSans-47" transform="translate(736.921875 0)"/>
      <use xlink:href="#DejaVuSans-48" transform="translate(800.40625 0)"/>
      <use xlink:href="#DejaVuSans-55" transform="translate(861.9375 0)"/>
      <use xlink:href="#DejaVuSans-3" transform="translate(903.046875 0)"/>
      <use xlink:href="#DejaVuSans-44" transform="translate(934.828125 0)"/>
      <use xlink:href="#DejaVuSans-51" transform="translate(996.109375 0)"/>
      <use xlink:href="#DejaVuSans-44" transform="translate(1059.484375 0)"/>
      <use xlink:href="#DejaVuSans-4f" transform="translate(1120.765625 0)"/>
      <use xlink:href="#DejaVuSans-af" transform="translate(1148.546875 0)"/>
      <use xlink:href="#DejaVuSans-57" transform="translate(1176.328125 0)"/>
      <use xlink:href="#DejaVuSans-4c" transform="translate(1215.53125 0)"/>
      <use xlink:href="#DejaVuSans-46" transform="translate(1243.3125 0)"/>
      <use xlink:href="#DejaVuSans-44" transform="translate(1298.296875 0)"/>
      <use xlink:href="#DejaVuSans-3" transform="translate(1359.578125 0)"/>
      <use xlink:href="#DejaVuSans-b" transform="translate(1391.359375 0)"/>
      <use xlink:href="#DejaVuSans-49" transform="translate(1430.375 0)"/>
      <use xlink:href="#DejaVuSans-52" transform="translate(1465.578125 0)"/>
      <use xlink:href="#DejaVuSans-55" transform="translate(1526.765625 0)"/>
      <use xlink:href="#DejaVuSans-50" transform="translate(1566.125 0)"/>
      <use xlink:href="#DejaVuSans-44" transform="translate(1663.53125 0)"/>
      <use xlink:href="#DejaVuSans-3" transform="translate(1724.8125 0)"/>
      <use xlink:href="#DejaVuSans-46" transform="translate(1756.59375 0)"/>
      <use xlink:href="#DejaVuSans-48" transform="translate(1811.578125 0)"/>
      <use xlink:href="#DejaVuSans-55" transform="translate(1873.109375 0)"/>
      <use xlink:href="#DejaVuSans-55" transform="translate(1912.46875 0)"/>
      <use xlink:href="#DejaVuSans-44" transform="translate(1953.578125 0)"/>
      <use xlink:href="#DejaVuSans-47" transform="translate(2014.859375 0)"/>
      <use xlink:href="#DejaVuSans-44" transform="translate(2078.34375 0)"/>
      <use xlink:href="#DejaVuSans-c" transform="translate(2139.625 0)"/>
     </g>
    </g>
    <g id="line2d_40">
     <g>
      <use xlink:href="#m0124a2d90b" x="61.203125" y="348.026016" style="fill: #ffffff; stroke: #d62728; stroke-width: 1.6"/>
     </g>
    </g>
    <g id="text_33">
     <!-- Medido (sti_from_impulse_response) -->
     <g style="fill: #ffffff" transform="translate(77.403125 351.176016) scale(0.09 -0.09)">
      <defs>
       <path id="DejaVuSans-42" d="M 3263 -1063 
L 3263 -1509 
L -63 -1509 
L -63 -1063 
L 3263 -1063 
z
" transform="scale(0.015625)"/>
       <path id="DejaVuSans-58" d="M 544 1381 
L 544 3500 
L 1119 3500 
L 1119 1403 
Q 1119 906 1312 657 
Q 1506 409 1894 409 
Q 2359 409 2629 706 
Q 2900 1003 2900 1516 
L 2900 3500 
L 3475 3500 
L 3475 0 
L 2900 0 
L 2900 538 
Q 2691 219 2414 64 
Q 2138 -91 1772 -91 
Q 1169 -91 856 284 
Q 544 659 544 1381 
z
M 1991 3584 
L 1991 3584 
z
" transform="scale(0.015625)"/>
      </defs>
      <use xlink:href="#DejaVuSans-30"/>
      <use xlink:href="#DejaVuSans-48" transform="translate(86.28125 0)"/>
      <use xlink:href="#DejaVuSans-47" transform="translate(147.8125 0)"/>
      <use xlink:href="#DejaVuSans-4c" transform="translate(211.296875 0)"/>
      <use xlink:href="#DejaVuSans-47" transform="translate(239.078125 0)"/>
      <use xlink:href="#DejaVuSans-52" transform="translate(302.5625 0)"/>
      <use xlink:href="#DejaVuSans-3" transform="translate(363.75 0)"/>
      <use xlink:href="#DejaVuSans-b" transform="translate(395.53125 0)"/>
      <use xlink:href="#DejaVuSans-56" transform="translate(434.546875 0)"/>
      <use xlink:href="#DejaVuSans-57" transform="translate(486.640625 0)"/>
      <use xlink:href="#DejaVuSans-4c" transform="translate(525.84375 0)"/>
      <use xlink:href="#DejaVuSans-42" transform="translate(553.625 0)"/>
      <use xlink:href="#DejaVuSans-49" transform="translate(603.625 0)"/>
      <use xlink:href="#DejaVuSans-55" transform="translate(638.828125 0)"/>
      <use xlink:href="#DejaVuSans-52" transform="translate(677.734375 0)"/>
      <use xlink:href="#DejaVuSans-50" transform="translate(738.921875 0)"/>
      <use xlink:href="#DejaVuSans-42" transform="translate(836.328125 0)"/>
      <use xlink:href="#DejaVuSans-4c" transform="translate(886.328125 0)"/>
      <use xlink:href="#DejaVuSans-50" transform="translate(914.109375 0)"/>
      <use xlink:href="#DejaVuSans-53" transform="translate(1011.515625 0)"/>
      <use xlink:href="#DejaVuSans-58" transform="translate(1075 0)"/>
      <use xlink:href="#DejaVuSans-4f" transform="translate(1138.375 0)"/>
      <use xlink:href="#DejaVuSans-56" transform="translate(1166.15625 0)"/>
      <use xlink:href="#DejaVuSans-48" transform="translate(1218.25 0)"/>
      <use xlink:href="#DejaVuSans-42" transform="translate(1279.78125 0)"/>
      <use xlink:href="#DejaVuSans-55" transform="translate(1329.78125 0)"/>
      <use xlink:href="#DejaVuSans-48" transform="translate(1368.6875 0)"/>
      <use xlink:href="#DejaVuSans-56" transform="translate(1430.21875 0)"/>
      <use xlink:href="#DejaVuSans-53" transform="translate(1482.3125 0)"/>
      <use xlink:href="#DejaVuSans-52" transform="translate(1545.796875 0)"/>
      <use xlink:href="#DejaVuSans-51" transform="translate(1606.984375 0)"/>
      <use xlink:href="#DejaVuSans-56" transform="translate(1670.359375 0)"/>
      <use xlink:href="#DejaVuSans-48" transform="translate(1722.453125 0)"/>
      <use xlink:href="#DejaVuSans-c" transform="translate(1783.984375 0)"/>
     </g>
    </g>
   </g>
  </g>
 </g>
 <defs>
  <clipPath id="pe2102e52f6">
   <rect x="44.103125" y="28.798125" width="558" height="332.64"/>
  </clipPath>
 </defs>
</svg>
